<svg width="269" height="103" viewBox="0 0 269 103" fill="none" xmlns="http://www.w3.org/2000/svg">
<path d="M38.7881 98.9919C38.7881 98.9919 33.8928 102.937 24.7583 102.937C15.6237 102.937 0.370117 98.1989 0.370117 78.2948C0.370117 60.9557 12.3831 53.7206 25.4338 53.7206C33.7264 53.7206 38.7979 56.8046 38.7979 56.8046V59.3501C38.7979 59.3501 34.0397 56.2661 25.4338 56.2661C18.3651 56.2661 5.71576 58.8997 5.71576 78.2948C5.71576 97.6898 17.2783 100.363 25.4338 100.363C33.5893 100.363 38.7979 96.4464 38.7979 96.4464V98.9919H38.7881Z" fill="white"/>
<path d="M70.666 99.0996V101.635H47.2373V54.6409H52.4557V99.0996H70.666Z" fill="white"/>
<path d="M84.1871 57.1766V75.808H100.224V78.3535H84.1871V99.129H102.172V101.635H78.9688V54.6409H79.1939H102.172V57.1766H84.1871Z" fill="white"/>
<path d="M138.691 84.0124H119.805L112.168 101.635H109.456L130.202 53.7206H131.651L151.634 101.635H146.024L138.671 84.0124H138.691ZM137.633 81.4669L129.429 61.7977L120.911 81.4669H137.633Z" fill="white"/>
<path d="M199.255 102.937H197.786L162.021 62.2481V101.635H159.544V53.7206H161.023L196.778 94.4099V54.6409H199.255V102.937Z" fill="white"/>
<path d="M211.277 99.0996H235.861V101.645H207.586V99.0996H207.616C207.89 92.1288 210.582 87.4195 220.383 82.1229C226.414 78.8724 230.643 76.1017 230.643 66.6049C230.643 59.4774 225.993 56.2759 220.236 56.2759C215.517 56.2759 212.208 57.255 208.732 60.0061V57.4606C208.732 57.4606 213.089 53.7304 220.794 53.7304C228.499 53.7304 235.852 58.1361 235.852 68.4064C235.852 78.6766 227.96 83.6306 220.813 87.5762C213.696 91.512 211.591 94.8016 211.268 99.0898" fill="white"/>
<path d="M258.536 53.4562V101.635H253.318V56.8731L243.39 61.0928L242.44 58.7431L254.835 53.4758L254.855 53.4562H258.536Z" fill="white"/>
<path d="M221.538 39.3481L213.471 29.9884C213.696 29.6555 213.872 29.2834 214.009 28.9016L236.645 27.2274L214.009 25.5533C213.872 25.1714 213.696 24.7994 213.471 24.4665L221.538 15.1068L212.178 23.1742C211.845 22.949 211.473 22.7727 211.092 22.6357L209.417 0L207.743 22.6357C207.361 22.7727 206.989 22.949 206.656 23.1742L197.297 15.1068L205.364 24.4665C205.139 24.7994 204.963 25.1714 204.826 25.5533L182.19 27.2274L204.826 28.9016C204.963 29.2834 205.139 29.6555 205.364 29.9884L197.297 39.3481L206.656 31.2807C206.989 31.5059 207.361 31.6821 207.743 31.8192L209.417 54.4548L211.092 31.8192C211.473 31.6821 211.845 31.5059 212.178 31.2807L221.538 39.3481Z" fill="white"/>
<path d="M268.317 49.2365C268.121 48.7568 267.837 48.326 267.465 47.954C267.103 47.5819 266.682 47.298 266.202 47.0924C265.713 46.877 265.194 46.7791 264.665 46.7791C264.137 46.7791 263.608 46.8868 263.118 47.0924C262.649 47.298 262.228 47.5819 261.856 47.954C261.493 48.326 261.209 48.7568 261.004 49.2365C260.798 49.7359 260.69 50.2547 260.69 50.803C260.69 51.3513 260.798 51.8702 261.004 52.3695C261.2 52.8492 261.483 53.28 261.856 53.6423C262.218 54.0143 262.639 54.2982 263.118 54.5038C263.608 54.7094 264.127 54.8171 264.665 54.8171C265.204 54.8171 265.723 54.7094 266.202 54.5038C266.672 54.2982 267.093 54.0143 267.465 53.6423C267.828 53.2702 268.112 52.8394 268.317 52.3695C268.523 51.8702 268.631 51.3513 268.631 50.803C268.631 50.2547 268.523 49.7359 268.317 49.2365ZM264.665 54.0926C262.874 54.0926 261.425 52.6143 261.425 50.7932C261.425 48.9722 262.874 47.4938 264.665 47.4938C266.457 47.4938 267.906 48.9722 267.906 50.7932C267.906 52.6143 266.457 54.0926 264.665 54.0926Z" fill="white"/>
<path d="M265.439 50.9694C265.625 50.8715 265.771 50.7246 265.869 50.5386C265.967 50.3526 266.026 50.1372 266.026 49.9022C266.026 49.6673 265.977 49.4519 265.869 49.2659C265.762 49.0798 265.625 48.9428 265.439 48.8351C265.252 48.7372 265.037 48.6882 264.792 48.6882H263.118V52.9177H263.715V51.1261H264.597L265.497 52.9177H266.202L265.233 51.0673L265.448 50.9792L265.439 50.9694ZM265.125 50.4799C265.037 50.5386 264.939 50.5582 264.822 50.5582H263.715V49.2463H264.822C264.939 49.2463 265.037 49.2757 265.125 49.3246C265.213 49.3834 265.282 49.4519 265.321 49.5596C265.37 49.6575 265.39 49.775 265.39 49.9022C265.39 50.0295 265.37 50.147 265.321 50.2449C265.272 50.3428 265.204 50.4211 265.115 50.4799" fill="white"/>
</svg>
