<svg width="55" height="55" viewBox="0 0 55 55" fill="none" xmlns="http://www.w3.org/2000/svg">
<path d="M39.3481 39.3481L31.2807 29.9884C31.5059 29.6555 31.6821 29.2834 31.8192 28.9016L54.4548 27.2274L31.8192 25.5533C31.6821 25.1714 31.5059 24.7994 31.2807 24.4665L39.3481 15.1068L29.9883 23.1742C29.6554 22.949 29.2834 22.7727 28.9016 22.6357L27.2274 0L25.5532 22.6357C25.1714 22.7727 24.7994 22.949 24.4665 23.1742L15.1068 15.1068L23.1741 24.4665C22.949 24.7994 22.7727 25.1714 22.6357 25.5533L0 27.2274L22.6357 28.9016C22.7727 29.2834 22.949 29.6555 23.1741 29.9884L15.1068 39.3481L24.4665 31.2807C24.7994 31.5059 25.1714 31.6821 25.5532 31.8192L27.2274 54.4548L28.9016 31.8192C29.2834 31.6821 29.6554 31.5059 29.9883 31.2807L39.3481 39.3481Z" fill="white"/>
</svg>
