<svg width="24" height="23" viewBox="0 0 24 23" fill="none" xmlns="http://www.w3.org/2000/svg">
<path d="M23.25 14.4266V22.936H18.2993V14.9455C18.2993 12.9738 17.5774 11.6247 15.824 11.6247C14.4832 11.6247 13.6581 12.5587 13.3487 13.3889C13.2455 13.7002 13.1424 14.1153 13.1424 14.6341V22.936H8.1917C8.1917 22.936 8.29484 9.44547 8.1917 8.09641H13.1424V10.1719C13.7612 9.13415 14.9989 7.68132 17.5774 7.68132C20.7747 7.68132 23.25 9.86056 23.25 14.4266ZM3.03475 0.936035C1.38453 0.936035 0.25 2.07754 0.25 3.53038C0.25 4.98321 1.28139 6.12471 2.93161 6.12471C4.68498 6.12471 5.71637 4.98321 5.71637 3.53038C5.81951 1.97377 4.78811 0.936035 3.03475 0.936035ZM0.559416 22.936H5.51009V8.09641H0.559416V22.936Z" fill="#333333"/>
</svg>
