<svg width="108" height="18" viewBox="0 0 108 18" fill="none" xmlns="http://www.w3.org/2000/svg">
<path d="M30.425 5.88734V13.3615H29.3501V11.9057C28.7625 12.9298 27.5371 13.5222 26.2274 13.5222C24.0451 13.5222 22.2487 11.8892 22.2487 9.61655C22.2487 7.34388 24.0285 5.72741 26.2274 5.72741C27.5537 5.72741 28.7625 6.31977 29.3501 7.32809V5.88665L30.425 5.88734ZM29.3501 9.65018C29.3501 7.84152 27.8726 6.70553 26.3117 6.70553C24.6665 6.70553 23.3237 7.9534 23.3237 9.60213C23.3237 11.2667 24.6665 12.5468 26.3117 12.5468C27.9403 12.5454 29.3501 11.3772 29.3501 9.65018Z" fill="#5B5B5F"/>
<path d="M37.9793 13.3616L34.0193 9.51776V13.3616H32.9429V1.67838H34.0172V8.75242L36.9548 5.88739H38.4495L35.0914 9.13681L39.4395 13.3616H37.9793Z" fill="#5B5B5F"/>
<path d="M47.6654 5.88734V13.3615H46.5948V11.9057C46.0072 12.9298 44.7818 13.5222 43.4721 13.5222C41.2898 13.5222 39.4934 11.8892 39.4934 9.61655C39.4934 7.34388 41.2725 5.72741 43.4721 5.72741C44.7984 5.72741 46.0072 6.31977 46.5948 7.32809V5.88665L47.6654 5.88734ZM46.5948 9.65018C46.5948 7.84152 45.1173 6.70553 43.5556 6.70553C41.9104 6.70553 40.5676 7.9534 40.5676 9.60213C40.5676 11.2667 41.9104 12.5468 43.5556 12.5468C45.1807 12.5454 46.5948 11.3772 46.5948 9.65018Z" fill="#5B5B5F"/>
<path d="M57.8217 5.88734V12.2585C57.8217 15.8751 56.1261 17.0914 53.5737 17.0914C52.8906 17.0962 52.218 16.9303 51.623 16.6102C51.028 16.2901 50.5314 15.827 50.1825 15.267L51.089 14.7865C51.3502 15.1914 51.7155 15.5259 52.1504 15.7583C52.5852 15.9908 53.0752 16.1134 53.5737 16.1147C55.4875 16.1147 56.7468 15.1867 56.7468 12.3052V11.9215C56.1592 12.9298 54.9338 13.5222 53.6241 13.5222C51.4418 13.5222 49.6454 11.8892 49.6454 9.61655C49.6454 7.34388 51.4245 5.72741 53.6241 5.72741C54.9504 5.72741 56.1592 6.31977 56.7468 7.32809V5.88665L57.8217 5.88734ZM56.7468 9.65018C56.7468 7.84152 55.2693 6.70553 53.7084 6.70553C52.0632 6.70553 50.7196 7.9534 50.7196 9.60213C50.7196 11.2667 52.0632 12.5468 53.7084 12.5468C55.337 12.5454 56.7468 11.3772 56.7468 9.65018Z" fill="#5B5B5F"/>
<path d="M72.2088 1.67838V13.3616H71.1345V11.9057C70.547 12.9299 69.3208 13.5222 68.0119 13.5222C65.8296 13.5222 64.0332 11.8893 64.0332 9.6166C64.0332 7.34393 65.8123 5.72746 68.0119 5.72746C69.3381 5.72746 70.547 6.31982 71.1345 7.32814V1.67838H72.2088ZM71.1345 9.65023C71.1345 7.84157 69.6571 6.70558 68.0954 6.70558C66.4502 6.70558 65.1074 7.95345 65.1074 9.60219C65.1074 11.2667 66.4502 12.5468 68.0954 12.5468C69.724 12.5455 71.1345 11.3772 71.1345 9.65023Z" fill="#5B5B5F"/>
<path d="M74.4415 3.13487C74.4415 2.70244 74.8274 2.39837 75.2638 2.39837C75.7339 2.39837 76.1033 2.70244 76.1033 3.13487C76.1033 3.55083 75.7339 3.85491 75.2638 3.85491C74.8274 3.85491 74.4415 3.55083 74.4415 3.13487ZM74.7295 5.88734H75.8038V13.3615H74.7295V5.88734Z" fill="#5B5B5F"/>
<path d="M85.958 5.88734V12.2585C85.958 15.8751 84.2624 17.0914 81.71 17.0914C81.0268 17.0963 80.3542 16.9304 79.7592 16.6103C79.1642 16.2902 78.6676 15.827 78.3188 15.267L79.2253 14.7865C79.4864 15.1914 79.8517 15.526 80.2866 15.7584C80.7215 15.9909 81.2114 16.1135 81.71 16.1147C83.6237 16.1147 84.883 15.1867 84.883 12.3052V11.9215C84.2948 12.9298 83.0693 13.5222 81.7604 13.5222C79.5773 13.5222 77.7809 11.8892 77.7809 9.61655C77.7809 7.34388 79.5608 5.72741 81.7604 5.72741C83.0866 5.72741 84.2948 6.31977 84.883 7.32809V5.88665L85.958 5.88734ZM84.8837 9.65018C84.8837 7.84152 83.4063 6.70553 81.8446 6.70553C80.1994 6.70553 78.8566 7.9534 78.8566 9.60213C78.8566 11.2667 80.1994 12.5468 81.8446 12.5468C83.4733 12.5454 84.8837 11.3772 84.8837 9.65018Z" fill="#5B5B5F"/>
<path d="M88.19 3.13487C88.19 2.70244 88.5767 2.39837 89.013 2.39837C89.4831 2.39837 89.8525 2.70244 89.8525 3.13487C89.8525 3.55083 89.4831 3.85491 89.013 3.85491C88.5767 3.85491 88.19 3.55083 88.19 3.13487ZM88.478 5.88734H89.5522V13.3615H88.478V5.88734Z" fill="#5B5B5F"/>
<path d="M95.459 6.76735H93.6633V13.3609H92.6028V6.76735H91.1758V5.88738H92.6028V2.91115H93.6605V5.88738H95.4561L95.459 6.76735Z" fill="#5B5B5F"/>
<path d="M104.411 5.88734V13.3615H103.331V11.9057C102.743 12.9298 101.518 13.5222 100.208 13.5222C98.0258 13.5222 96.2294 11.8892 96.2294 9.61655C96.2294 7.34388 98.0092 5.72741 100.208 5.72741C101.534 5.72741 102.743 6.31977 103.331 7.32809V5.88665L104.411 5.88734ZM103.331 9.65018C103.331 7.84152 101.853 6.70553 100.292 6.70553C98.6472 6.70553 97.3036 7.9534 97.3036 9.60213C97.3036 11.2667 98.6472 12.5468 100.292 12.5468C101.923 12.5454 103.331 11.3772 103.331 9.65018Z" fill="#5B5B5F"/>
<path d="M106.925 1.67838H108V13.3616H106.925V1.67838Z" fill="#5B5B5F"/>
<path d="M0.343466 11.3236C1.30755 9.62136 3.49347 8.92123 5.21355 9.82384L8.61555 11.7684L10.2852 12.7156C9.78105 12.4302 9.20551 12.2796 8.61915 12.2796C8.03278 12.2796 7.45724 12.4302 6.95307 12.7156L3.86499 14.468C2.88291 15.0775 1.63947 14.9259 0.880587 14.2621C0.206667 13.6711 -0.405334 12.6456 0.343466 11.3236Z" fill="#FF0000"/>
<path d="M6.30291 1.48892L6.30939 1.49991C6.59377 1.02763 7.02985 0.655 7.5533 0.436998C8.07675 0.218995 8.65984 0.167165 9.21655 0.289154C9.77325 0.411143 10.2741 0.700491 10.6451 1.11451C11.0162 1.52852 11.2379 2.04528 11.2774 2.58854C11.3731 4.06293 10.1081 5.27099 8.62131 5.28746H5.92563C4.69083 5.28266 3.66051 5.87502 3.03483 6.87785L6.30291 1.48892Z" fill="#FF0000"/>
<path d="M3.03483 6.87785C3.69003 5.85306 4.65776 5.31835 5.85944 5.28746H8.55944C9.93464 5.28746 11.1298 4.31483 11.2674 3.00999C11.3243 2.4831 11.2062 1.95248 10.9297 1.49304C11.0384 1.67288 16.9374 11.4095 16.9604 11.452C18.0714 13.5414 15.5492 15.7036 13.4382 14.5051L10.2846 12.7157L5.21288 9.82388C3.55184 8.9494 1.45664 9.57472 0.446484 11.1521L3.03483 6.87785Z" fill="#D8D9DD"/>
</svg>
