<svg width="42" height="29" viewBox="0 0 42 29" fill="none" xmlns="http://www.w3.org/2000/svg">
<rect x="0.078125" y="0.0639648" width="41" height="28" rx="12" fill="#444444"/>
<path d="M11.5183 12.1664L11.6325 12.1668L11.7234 12.1354L11.8142 12.1039L11.8946 12.021L11.975 11.9382L12.0173 11.8277L12.0597 11.7173L12.0612 11.5547L12.0627 11.3922L12.0251 11.3286L11.9874 11.2651L11.9219 11.2239L11.8564 11.1827H11.5734L11.4771 11.2265L11.3808 11.2703L11.3249 11.3312L11.269 11.3922L11.225 11.4973L11.1811 11.6025L11.1728 11.7664L11.1646 11.9303L11.2054 12.0118L11.2463 12.0932L11.3252 12.1296L11.404 12.1659L11.5183 12.1664ZM29.7275 16.8341H30.1383V16.5785L30.1855 16.2616C30.2116 16.0873 30.2545 15.8112 30.2811 15.6482C30.3075 15.4851 30.3405 15.2786 30.3543 15.189C30.3682 15.0996 30.4049 14.906 30.4359 14.7587C30.467 14.6114 30.5057 14.4522 30.522 14.4048C30.5384 14.3575 30.5518 14.3078 30.552 14.2945C30.5523 14.2811 30.5872 14.1952 30.6299 14.1035L30.7074 13.9368L30.8097 13.7986L30.9121 13.6605L31.024 13.5749C31.0855 13.5278 31.1846 13.4654 31.244 13.4361L31.3521 13.3829L31.5873 13.3846L31.8226 13.3863L31.9152 13.4164L32.0078 13.4467L32.0234 13.4368L32.039 13.427L32.0399 13.366C32.0403 13.3324 32.0604 13.2076 32.0846 13.0884L32.1286 12.8719L32.0791 12.8522C32.0317 12.8343 31.9839 12.8177 31.9356 12.8024L31.8415 12.7722L31.6722 12.7727L31.5028 12.7731L31.3647 12.8225L31.2267 12.8719L31.123 12.9354L31.0194 12.9989L30.8847 13.1424L30.7499 13.2858L30.6776 13.3971C30.6378 13.4584 30.6027 13.5057 30.5997 13.5023C30.5966 13.499 30.6183 13.3714 30.6478 13.2189C30.6772 13.0663 30.7018 12.9222 30.7022 12.8985L30.703 12.8554H30.0067V12.8677C30.0067 12.8743 29.9894 12.997 29.9681 13.1402C29.9469 13.2835 29.9043 13.5599 29.8735 13.7545C29.8365 13.9873 29.799 14.2201 29.761 14.4527C29.7281 14.6538 29.6934 14.8547 29.6571 15.0552C29.631 15.1972 29.5846 15.447 29.554 15.61C29.5234 15.7731 29.4732 16.0356 29.4423 16.1934L29.3515 16.6572L29.3168 16.8341H29.7275ZM20.1896 16.8341H20.5913L20.6034 16.6613C20.6101 16.5664 20.6328 16.3747 20.6539 16.2357C20.6751 16.0967 20.7184 15.8193 20.7502 15.6195C20.7904 15.3724 20.8341 15.1259 20.8814 14.88C20.9219 14.6733 20.9675 14.4678 20.9829 14.4234C20.9984 14.379 21.011 14.3309 21.011 14.3165C21.011 14.302 21.0412 14.2235 21.0781 14.1419C21.115 14.0603 21.1838 13.9354 21.231 13.8643L21.3168 13.735L21.4316 13.6269L21.5464 13.5189L21.6879 13.4502L21.8295 13.3814L22.046 13.3826L22.2623 13.3838L22.3687 13.4161C22.4272 13.4338 22.4802 13.4484 22.4863 13.4484C22.4925 13.4484 22.4975 13.4281 22.4975 13.4032C22.4975 13.3784 22.5188 13.2524 22.5446 13.1232C22.5705 12.9941 22.5916 12.883 22.5916 12.8763C22.5916 12.8696 22.5303 12.8452 22.4552 12.822C22.3801 12.7989 22.2764 12.7746 22.2247 12.768L22.1306 12.7562L22.0083 12.7782C21.941 12.7903 21.841 12.817 21.786 12.8376C21.7309 12.8581 21.6401 12.9047 21.5841 12.9411C21.5282 12.9775 21.4411 13.0485 21.3907 13.0987C21.3401 13.149 21.2553 13.2505 21.202 13.3241C21.1606 13.3814 21.1193 13.4387 21.0783 13.4963L21.0514 13.5345L21.0677 13.458C21.0767 13.4159 21.1018 13.2782 21.1234 13.152C21.1449 13.0257 21.1673 12.9073 21.1727 12.889L21.1828 12.8554H20.465V12.9015C20.465 12.9269 20.4438 13.0796 20.418 13.241C20.3921 13.4025 20.3494 13.6722 20.3232 13.8406C20.2969 14.0089 20.2502 14.3016 20.2195 14.4909C20.1868 14.6921 20.1522 14.893 20.1158 15.0934C20.045 15.4763 19.9726 15.8589 19.8985 16.2411C19.8668 16.4042 19.8289 16.5968 19.8143 16.6692C19.7996 16.7415 19.7876 16.8082 19.7876 16.8173V16.8342H20.1896V16.8341ZM10.7222 16.8341H11.127L11.1384 16.8039C11.1448 16.7872 11.1499 16.7436 11.1499 16.707C11.1499 16.6702 11.1754 16.4793 11.2064 16.2828C11.2774 15.8351 11.3502 15.3876 11.4248 14.9404C11.4567 14.752 11.4904 14.5639 11.5257 14.3761C11.5556 14.2183 11.6016 13.973 11.6279 13.831C11.6541 13.689 11.7058 13.4188 11.7426 13.2305C11.7795 13.0422 11.8142 12.8807 11.8198 12.8715L11.83 12.8547L11.4207 12.8598L11.0114 12.865L10.9772 13.1137C10.9585 13.2505 10.9175 13.5216 10.8861 13.7162C10.8548 13.9108 10.8074 14.2079 10.7807 14.3761C10.7485 14.5773 10.7141 14.7782 10.6776 14.9787C10.6475 15.1417 10.6014 15.3913 10.5751 15.5333C10.5488 15.6754 10.5017 15.9251 10.4703 16.0882C10.4389 16.2513 10.3969 16.4664 10.3768 16.5664C10.3567 16.6664 10.3351 16.7675 10.3288 16.7911L10.3175 16.8341H10.7222ZM5.66043 16.8341H6.11762L6.15046 16.6285C6.16847 16.5154 6.20374 16.298 6.22876 16.1455L6.33225 15.5143C6.36416 15.3196 6.41202 15.0313 6.43856 14.8735C6.46509 14.7157 6.50731 14.4709 6.53227 14.3295C6.55729 14.1881 6.58253 14.0676 6.58828 14.0617L6.59886 14.051H9.05784L9.07151 14.0648L9.08519 14.0787L9.06381 14.1892C9.05214 14.25 9.01746 14.4373 8.9868 14.6057C8.95614 14.774 8.90459 15.058 8.87219 15.237C8.83817 15.4252 8.80354 15.6133 8.76832 15.8012C8.74347 15.9327 8.69322 16.2082 8.65664 16.4133C8.62012 16.6184 8.59028 16.797 8.59039 16.8103L8.5906 16.8341H9.50885L9.52914 16.7146C9.54037 16.6489 9.55828 16.5305 9.56914 16.4516C9.57988 16.3726 9.60598 16.2047 9.62698 16.0785C9.64799 15.9524 9.68993 15.7027 9.72027 15.5238C9.75055 15.345 9.80134 15.0393 9.83303 14.8447C9.86473 14.6501 9.91172 14.3661 9.93755 14.2135C9.97022 14.022 10.0042 13.8307 10.0396 13.6397C10.0699 13.4766 10.1205 13.2012 10.152 13.0275C10.1834 12.854 10.2305 12.5914 10.2566 12.4441C10.2828 12.2968 10.3304 12.03 10.3626 11.8511C10.3947 11.6723 10.4352 11.4636 10.4526 11.3872L10.4843 11.2486H9.55459L9.54195 11.3395C9.53506 11.3894 9.51259 11.5293 9.49208 11.6503C9.47151 11.7713 9.43428 11.9864 9.40921 12.1285C9.38414 12.2706 9.33834 12.5417 9.30741 12.7311C9.27707 12.9166 9.24788 13.1023 9.21982 13.2881L9.18846 13.5009L8.50606 13.515L7.8236 13.529L7.25206 13.5152C6.9377 13.5076 6.67874 13.4998 6.67657 13.4981C6.67445 13.4962 6.68514 13.4219 6.70034 13.3329C6.72036 13.2181 6.74169 13.1036 6.76432 12.9893C6.79319 12.8428 6.82124 12.6961 6.84843 12.5493C6.87475 12.4073 6.90449 12.2308 6.91464 12.1572C6.92473 12.0836 6.94595 11.9609 6.96174 11.8846C6.97753 11.8083 7.00749 11.6477 7.02832 11.5276C7.04911 11.4075 7.0713 11.2956 7.07765 11.2789L7.08905 11.2486H6.16679L6.13732 11.416C6.12104 11.508 6.09939 11.6393 6.08919 11.7077C6.07893 11.7761 6.04458 11.9955 6.01284 12.1954C5.98109 12.3953 5.9342 12.6923 5.90864 12.8554L5.80537 13.5153C5.76907 13.7451 5.73076 13.9747 5.69055 14.2039C5.65706 14.3922 5.62293 14.5802 5.58815 14.7682C5.56367 14.8997 5.51706 15.1493 5.4845 15.323C5.45036 15.5049 5.41514 15.6866 5.37895 15.8682C5.35344 15.9944 5.32528 16.1407 5.31638 16.1933C5.30737 16.2459 5.27828 16.3977 5.25158 16.5305C5.22494 16.6633 5.20312 16.7859 5.20312 16.803V16.834H5.66043V16.8341ZM33.0362 16.9272L33.215 16.9295L33.3844 16.9015C33.4776 16.8862 33.5961 16.8614 33.6479 16.8466C33.6996 16.8316 33.7928 16.793 33.8548 16.7607L33.9678 16.7019L34.0649 16.615L34.162 16.528L34.2644 16.3895C34.3206 16.3131 34.3716 16.2379 34.3776 16.2221L34.3885 16.1933L34.379 16.289C34.3722 16.3529 34.3636 16.4168 34.3529 16.4803C34.3438 16.5329 34.3309 16.634 34.324 16.705L34.3116 16.8341H35.0499V16.576L35.1061 16.0881C35.137 15.8198 35.1828 15.4626 35.2078 15.2942C35.2327 15.1258 35.2713 14.8849 35.2935 14.7587C35.3155 14.6324 35.3548 14.4043 35.3805 14.2518C35.4063 14.0993 35.4529 13.8323 35.484 13.6588C35.5151 13.4852 35.565 13.2098 35.5948 13.0467C35.6245 12.8836 35.6708 12.6296 35.6976 12.4824C35.7244 12.3351 35.7724 12.0768 35.8042 11.9086C35.8376 11.733 35.8721 11.5576 35.9077 11.3824C35.9327 11.2615 35.9532 11.156 35.9531 11.1482V11.1338H35.1476L35.1357 11.2534C35.1292 11.3191 35.0983 11.5365 35.0672 11.7364C35.0303 11.9724 34.9927 12.2083 34.9544 12.4441C34.932 12.5801 34.91 12.7161 34.8881 12.8522L34.8781 12.916L34.8463 12.9022C34.8288 12.8947 34.734 12.8679 34.6358 12.8428L34.457 12.7972L34.2123 12.7779L33.9676 12.7585L33.7607 12.7781L33.5537 12.7977L33.3655 12.8461L33.1773 12.8944L32.9985 12.9831L32.8196 13.0717L32.6879 13.1708L32.5562 13.2699L32.4424 13.3939C32.3798 13.4621 32.2895 13.5749 32.2415 13.6446L32.1545 13.7712L32.0521 13.9876C31.9959 14.1066 31.9274 14.2642 31.9 14.3378C31.8726 14.4115 31.8243 14.5747 31.7925 14.7006L31.7349 14.9295L31.7066 15.2267L31.6782 15.5238L31.6995 15.7629L31.7209 16.0021L31.7461 16.0882C31.76 16.1355 31.7892 16.2198 31.811 16.2755L31.8507 16.377L31.9231 16.4767L31.9956 16.5763L32.0783 16.6452L32.161 16.7141L32.2739 16.7711C32.3361 16.8023 32.4402 16.843 32.5054 16.8611C32.5706 16.8793 32.6765 16.9011 32.7407 16.9096C32.805 16.918 32.9379 16.926 33.0362 16.9272ZM33.3571 16.3846L33.215 16.3922L33.1192 16.3746C33.0664 16.365 32.982 16.339 32.9316 16.3171L32.8399 16.2772L32.7627 16.2129L32.6856 16.1487L32.571 15.9256L32.5449 15.8012L32.5188 15.6768L32.521 15.4281L32.5232 15.1795L32.5536 14.9595L32.5839 14.7395L32.6311 14.5865C32.6571 14.5024 32.6784 14.4229 32.6785 14.41C32.6787 14.3972 32.7042 14.3283 32.7355 14.2571C32.7719 14.1746 32.8104 14.0931 32.851 14.0127C32.8835 13.9495 32.9442 13.8511 32.9858 13.794C33.0275 13.7369 33.1018 13.6508 33.1509 13.6027C33.1999 13.5547 33.2779 13.4916 33.3243 13.4626L33.4085 13.4099L33.5565 13.3579L33.7045 13.3058L34.015 13.3056H34.3255L34.5043 13.3561C34.6026 13.3838 34.7071 13.4159 34.7363 13.4275L34.7895 13.4485L34.7792 13.5011C34.7735 13.53 34.7511 13.6569 34.7295 13.7831C34.7079 13.9093 34.6652 14.1504 34.6348 14.3187C34.6043 14.4871 34.5576 14.741 34.5308 14.883C34.5041 15.025 34.4654 15.2058 34.4448 15.2846C34.4236 15.3658 34.4021 15.4467 34.3803 15.5275C34.3653 15.5822 34.3298 15.677 34.3014 15.7379C34.2729 15.799 34.223 15.8877 34.1905 15.935C34.158 15.9823 34.1033 16.048 34.0687 16.0807C34.034 16.1136 33.9591 16.1719 33.9022 16.2104L33.7987 16.2803L33.4995 16.3768L33.3571 16.3846ZM26.6753 16.9204L26.9293 16.9129L27.0893 16.8713L27.2493 16.8296L27.3528 16.78C27.4097 16.7527 27.5029 16.6986 27.5597 16.66C27.6167 16.6214 27.7049 16.5479 27.7556 16.4967C27.8063 16.4456 27.8816 16.3583 27.9228 16.3028C27.9641 16.2472 28.0003 16.2043 28.0033 16.2074C28.0065 16.2106 27.9969 16.2989 27.9822 16.4039C27.9676 16.509 27.9554 16.6488 27.9552 16.7145L27.9549 16.834H28.6457L28.6562 16.5616L28.6667 16.2889L28.716 15.935C28.7431 15.7404 28.7869 15.452 28.8133 15.2942C28.8397 15.1365 28.8856 14.8697 28.9153 14.7013C28.945 14.5329 28.992 14.2704 29.0198 14.1178L29.0703 13.8405L29.0721 13.6009L29.0737 13.3613L29.0205 13.2506L28.9672 13.1399L28.895 13.0694L28.8226 12.9988L28.704 12.9378L28.5853 12.8766L28.2316 12.7966L27.9882 12.7778L27.7447 12.759L27.4311 12.7787C27.2585 12.7896 27.0159 12.811 26.8917 12.8263L26.6658 12.8541L26.358 12.8554L26.3356 12.9654C26.3233 13.0259 26.289 13.1695 26.2596 13.2848C26.23 13.3999 26.2087 13.4969 26.212 13.5003C26.2153 13.5038 26.2976 13.4847 26.3948 13.4581C26.4921 13.4315 26.6988 13.3878 26.854 13.3609L27.1363 13.312L27.3904 13.3014L27.6444 13.2907L27.9718 13.3491L28.081 13.4039L28.1902 13.4587L28.2514 13.5514L28.3126 13.644L28.3117 13.79L28.3108 13.9361L28.2783 14.0964L28.2459 14.2568L27.5687 14.2593L26.8915 14.2617L26.67 14.3235C26.5481 14.3575 26.4131 14.4026 26.37 14.4237C26.327 14.4449 26.2839 14.4622 26.2743 14.4622C26.2647 14.4622 26.1922 14.503 26.1131 14.553L25.9694 14.6438L25.8563 14.7586C25.794 14.8218 25.7145 14.9165 25.6796 14.9691C25.6446 15.0216 25.5878 15.1315 25.5534 15.2133L25.4908 15.3618L25.4621 15.5288L25.4333 15.6959V16.0464L25.4607 16.1923L25.4882 16.3382L25.5391 16.4335C25.5672 16.4857 25.6187 16.5624 25.6534 16.6038L25.7168 16.6791L25.8293 16.7486L25.9418 16.8181L26.0707 16.8551C26.1416 16.8754 26.2494 16.9002 26.3104 16.91L26.4212 16.9278L26.6753 16.9203V16.9204ZM26.9105 16.3855L26.76 16.3935L26.6603 16.3676C26.6055 16.3535 26.5222 16.3218 26.4754 16.2974L26.3902 16.2528L26.3437 16.1966C26.3181 16.1656 26.2791 16.105 26.2568 16.0617L26.2165 15.9829L26.2087 15.7991L26.2007 15.6152L26.2326 15.5036C26.2501 15.4423 26.2913 15.3358 26.3241 15.267L26.3837 15.142L26.4979 15.0269L26.612 14.9117L26.7331 14.8524L26.8542 14.7932L27.0047 14.7568L27.1552 14.7204H28.0962L28.126 14.7329L28.1557 14.7454L28.1307 14.8955C28.1169 14.9781 28.0841 15.1274 28.0576 15.2274C28.0313 15.3273 27.9847 15.4742 27.9542 15.5538C27.9236 15.6335 27.8986 15.7039 27.8986 15.7102C27.8986 15.7167 27.8677 15.7747 27.8299 15.8392L27.7611 15.9565L27.6483 16.0702C27.5863 16.1327 27.5286 16.1838 27.5203 16.1838C27.512 16.1838 27.4739 16.2055 27.4357 16.2317L27.3664 16.2794L27.2138 16.3286L27.0612 16.3776L26.9105 16.3855ZM23.5797 16.9275L23.7868 16.9297L24.0219 16.9014C24.1512 16.8859 24.3234 16.86 24.4045 16.844C24.5025 16.824 24.5998 16.8005 24.6962 16.7736C24.7755 16.7508 24.8473 16.7262 24.8557 16.7189C24.8641 16.7116 24.8865 16.6248 24.9055 16.526C24.9245 16.4272 24.9485 16.2947 24.9587 16.2317C24.9689 16.1685 24.9743 16.1134 24.9705 16.1094C24.9667 16.1052 24.9529 16.1105 24.9397 16.1211C24.9265 16.1319 24.8342 16.1713 24.7345 16.2089L24.5533 16.2773L24.2952 16.3282L24.0371 16.3789L23.8178 16.3714L23.5984 16.3637L23.4737 16.3197L23.3491 16.2758L23.2528 16.1902L23.1566 16.1046L23.0927 15.9862L23.0288 15.868L22.9983 15.7098L22.9679 15.5517L22.9681 15.3464L22.9683 15.1412L23.0053 14.8925L23.0423 14.6438L23.0814 14.5099C23.1029 14.4362 23.1273 14.3502 23.1355 14.3186C23.1437 14.287 23.1782 14.1967 23.2122 14.1177C23.2461 14.0389 23.3066 13.9169 23.3467 13.8467L23.4195 13.7193L23.509 13.625L23.5984 13.5307L23.6931 13.471L23.7879 13.4113L23.9096 13.3732C23.9765 13.3522 24.0948 13.325 24.1724 13.3128L24.3136 13.2904L24.5205 13.301L24.7276 13.3115L24.9722 13.3613L25.2169 13.411L25.3164 13.4488C25.3711 13.4695 25.4182 13.4865 25.4212 13.4865C25.4241 13.4865 25.4373 13.4155 25.4503 13.3287C25.4635 13.2419 25.4868 13.0991 25.5022 13.0114C25.5177 12.9236 25.5266 12.848 25.522 12.8434C25.5175 12.8388 25.4439 12.827 25.3586 12.8171C25.2733 12.8072 25.0413 12.7897 24.8432 12.778L24.4829 12.757L24.2288 12.7768L23.9748 12.7967L23.7865 12.8368L23.5983 12.877L23.4772 12.9263C23.4105 12.9534 23.3129 13.0023 23.2602 13.035C23.2097 13.0662 23.16 13.0987 23.1112 13.1326C23.0819 13.1537 22.9931 13.2357 22.9138 13.3151L22.7697 13.4592L22.6892 13.579C22.645 13.645 22.5685 13.7823 22.5191 13.8844L22.4295 14.07L22.3607 14.2707C22.323 14.3812 22.2702 14.562 22.2435 14.6725L22.1949 14.8733L22.1773 15.0551L22.1597 15.2368L22.1599 15.4759L22.1601 15.7149L22.1778 15.8541L22.1956 15.9931L22.252 16.1362L22.3083 16.2793L22.3735 16.3827L22.4385 16.4862L22.542 16.5898L22.6456 16.6933L22.755 16.7522L22.8646 16.8109L23.0085 16.8516C23.0875 16.8739 23.2019 16.8996 23.2625 16.9085C23.3231 16.9176 23.4659 16.9259 23.5799 16.9273H23.5797V16.9275ZM17.5952 16.9274L17.8022 16.9297L18.0092 16.9106C18.1231 16.9 18.3094 16.878 18.4232 16.8616C18.5371 16.8454 18.7338 16.8088 18.8603 16.7806L19.0904 16.7292L19.1019 16.6429C19.1081 16.5955 19.134 16.4544 19.1593 16.3293L19.2052 16.1018L19.195 16.0915L19.1849 16.0812L19.1146 16.1157C19.0759 16.1347 18.9553 16.18 18.8468 16.2163L18.6494 16.2823L18.4422 16.3233L18.235 16.364L17.9057 16.3648L17.5764 16.3653L17.4634 16.3287C17.4014 16.3085 17.31 16.2717 17.2605 16.2467L17.1705 16.2015L17.0218 16.0649L16.9638 15.9619L16.9058 15.8588L16.8694 15.7296L16.8331 15.6003L16.8329 15.3611L16.8326 15.122L16.8648 14.9087L16.8972 14.6953L17.4636 14.6683L18.5104 14.6752L19.5572 14.682L19.5888 14.5458C19.6062 14.4708 19.6328 14.3159 19.6479 14.2015L19.6753 13.9934L19.6759 13.8184L19.6766 13.6434L19.6468 13.5127L19.6169 13.3821L19.5676 13.2956C19.5406 13.2481 19.4927 13.1791 19.4615 13.1424C19.4303 13.1057 19.3744 13.054 19.3375 13.0275C19.3004 13.0009 19.2279 12.9563 19.1761 12.9283L19.0821 12.8775L18.9177 12.8372L18.7533 12.797L18.5508 12.7773L18.3482 12.7576L18.16 12.7701L17.9718 12.7825L17.746 12.8266L17.5202 12.8707L17.379 12.928C17.3013 12.9595 17.1828 13.0171 17.1155 13.0559C17.0483 13.0946 16.9551 13.1577 16.9086 13.1961C16.862 13.2345 16.7813 13.309 16.7293 13.3618C16.6773 13.4147 16.6004 13.5094 16.5585 13.5726C16.5165 13.6358 16.4521 13.7476 16.4153 13.8213C16.3787 13.8949 16.3309 13.9982 16.3091 14.0508C16.2874 14.1034 16.2478 14.211 16.2213 14.2899C16.1947 14.3688 16.153 14.5195 16.1286 14.6247C16.0998 14.7522 16.075 14.8805 16.0541 15.0095L16.024 15.2031L16.0244 15.4877L16.0247 15.7723L16.0532 15.8967C16.0689 15.9651 16.0991 16.0684 16.12 16.1262C16.141 16.1841 16.1799 16.2702 16.2065 16.3176C16.233 16.3649 16.2896 16.441 16.3323 16.4869C16.3749 16.5327 16.4522 16.6023 16.504 16.6414C16.5556 16.6805 16.6478 16.7357 16.7086 16.7638L16.8192 16.815L16.9735 16.853C17.0583 16.8739 17.1864 16.8985 17.2581 16.9079C17.3296 16.9173 17.4814 16.9261 17.5952 16.9274ZM17.9496 14.2327C17.4287 14.2327 17.0024 14.2289 17.0024 14.2242C17.0024 14.2197 17.0246 14.1529 17.0518 14.076C17.079 13.9991 17.1267 13.8847 17.1578 13.8217L17.2145 13.7071L17.339 13.5813L17.4634 13.4554L17.5858 13.396C17.6531 13.3633 17.742 13.3276 17.7834 13.3168C17.8249 13.306 17.9433 13.2917 18.0468 13.285L18.2351 13.2727L18.3796 13.2916L18.5241 13.3105L18.6291 13.3593L18.7342 13.4082L18.7918 13.4714C18.8235 13.5061 18.8612 13.5572 18.8757 13.585L18.9019 13.6355L18.9193 13.7476L18.9367 13.8596L18.9168 14.0461L18.8969 14.2327H17.9496ZM12.3499 18.6131L12.3613 18.5828C12.3676 18.5662 12.3727 18.5271 12.3727 18.4959C12.3727 18.4648 12.3861 18.3514 12.4024 18.2441C12.4187 18.1366 12.4569 17.8896 12.4874 17.695C12.5178 17.5004 12.5634 17.2076 12.5887 17.0446C12.6127 16.8901 12.6356 16.7355 12.6573 16.5808C12.6698 16.4886 12.6849 16.4133 12.691 16.4133C12.6971 16.4133 12.7233 16.4541 12.7492 16.5038L12.7961 16.5942L12.9004 16.7011L13.0048 16.808L13.1332 16.8602L13.2616 16.9124L13.4147 16.9326L13.5678 16.9527L13.762 16.9406L13.9563 16.9284L14.1666 16.8732L14.377 16.8178L14.4899 16.7654C14.552 16.7367 14.662 16.6738 14.7345 16.6258L14.8663 16.5387L14.9891 16.4138C15.0566 16.3453 15.1519 16.2352 15.2008 16.1692C15.2497 16.1034 15.2897 16.0447 15.2897 16.0389C15.2897 16.033 15.3137 15.9922 15.3431 15.9481C15.3724 15.9042 15.4325 15.782 15.4765 15.6769C15.5207 15.5717 15.5895 15.3823 15.6296 15.2561L15.7026 15.0265L15.7403 14.8277C15.761 14.7184 15.7877 14.5376 15.7996 14.426L15.8211 14.2231L15.8086 14.051L15.7962 13.8788L15.7569 13.7066L15.7176 13.5345L15.654 13.4056L15.5905 13.2767L15.4677 13.1444L15.3449 13.0121L15.0544 12.8595L14.8944 12.8205L14.7344 12.7816L14.5745 12.7697L14.4145 12.7578L14.2364 12.7786L14.0581 12.7994L13.9127 12.8372L13.7673 12.8748L13.6409 12.9343C13.5715 12.9669 13.4703 13.0225 13.4163 13.0577C13.3621 13.0929 13.3063 13.1333 13.2922 13.1476C13.2781 13.1619 13.2443 13.1884 13.2172 13.2064L13.1678 13.2393L13.2023 13.0713C13.2213 12.9789 13.2372 12.8925 13.2376 12.8793L13.2384 12.8554H12.5483L12.4879 13.2428C12.4545 13.4559 12.402 13.7851 12.3711 13.9745C12.3029 14.3923 12.2338 14.8099 12.164 15.2274C12.1332 15.4114 12.0824 15.7041 12.051 15.8778C12.0195 16.0513 11.9736 16.3052 11.9487 16.442C11.9239 16.5788 11.8771 16.837 11.8449 17.0158C11.8069 17.2263 11.7684 17.4367 11.7296 17.6471C11.6929 17.8449 11.6554 18.0425 11.6171 18.2401C11.5863 18.3978 11.5565 18.5464 11.5508 18.5699L11.5406 18.613H12.3499V18.6131ZM13.5301 16.4111L13.4274 16.3926L13.3247 16.3742L13.2204 16.3258L13.116 16.2774L13.0432 16.2067L12.9703 16.136L12.9283 16.0404C12.9051 15.9878 12.8754 15.8984 12.8622 15.8417L12.8383 15.7388L12.8479 15.574L12.8575 15.4092L12.906 15.1509C12.9426 14.9534 12.978 14.7558 13.0123 14.558C13.0442 14.3738 13.0925 14.104 13.1196 13.9584L13.1688 13.6937L13.2767 13.6024C13.336 13.5523 13.43 13.485 13.4856 13.453L13.5865 13.3948L13.7182 13.3533L13.85 13.3119L14.1887 13.2917L14.3267 13.3216L14.4646 13.3514L14.5619 13.397L14.6592 13.4425L14.7408 13.5259L14.8225 13.6093L14.8665 13.6976C14.8907 13.7462 14.9248 13.8413 14.9421 13.9089L14.9736 14.0319L14.9639 14.3953L14.9543 14.7588L14.906 14.9736C14.8794 15.0918 14.8288 15.2726 14.7935 15.3753L14.7294 15.5622L14.6509 15.7134C14.6077 15.7967 14.5411 15.9091 14.5029 15.9632C14.4647 16.0174 14.4037 16.0878 14.3675 16.1193C14.3236 16.1573 14.2787 16.1939 14.2327 16.2292L14.1637 16.2816L13.8443 16.392L13.5301 16.4111Z" fill="white"/>
</svg>
