<svg width="24" height="24" viewBox="0 0 24 24" fill="none" xmlns="http://www.w3.org/2000/svg">
<path d="M11.75 3.01435C14.7982 3.01435 15.2139 3.01435 16.4608 3.01435C17.5693 3.01435 18.1235 3.29146 18.5392 3.43001C19.0934 3.70712 19.509 3.84567 19.9247 4.26134C20.3404 4.677 20.6175 5.09266 20.756 5.64688C20.8946 6.06254 21.0331 6.61676 21.1717 7.72519C21.1717 8.97218 21.1717 9.24929 21.1717 12.436C21.1717 15.6228 21.1717 15.8999 21.1717 17.1469C21.1717 18.2553 20.8946 18.8095 20.756 19.2252C20.4789 19.7794 20.3404 20.1951 19.9247 20.6107C19.509 21.0264 19.0934 21.3035 18.5392 21.4421C18.1235 21.5806 17.5693 21.7192 16.4608 21.8577C15.2139 21.8577 14.9367 21.8577 11.75 21.8577C8.56325 21.8577 8.28615 21.8577 7.03916 21.8577C5.93072 21.8577 5.37651 21.5806 4.96084 21.4421C4.40663 21.165 3.99096 21.0264 3.5753 20.6107C3.15964 20.1951 2.88253 19.7794 2.74398 19.2252C2.60542 18.8095 2.46687 18.2553 2.32831 17.1469C2.32831 15.8999 2.32831 15.6228 2.32831 12.436C2.32831 9.24929 2.32831 8.97218 2.32831 7.72519C2.32831 6.61676 2.60542 6.06254 2.74398 5.64688C3.02108 5.09266 3.15964 4.677 3.5753 4.26134C3.99096 3.84567 4.40663 3.56857 4.96084 3.43001C5.37651 3.29146 5.93072 3.1529 7.03916 3.01435C8.28615 3.01435 8.70181 3.01435 11.75 3.01435ZM11.75 0.936035C8.56325 0.936035 8.28615 0.936035 7.03916 0.936035C5.79217 0.936035 4.96084 1.21314 4.26807 1.49025C3.5753 1.76736 2.88253 2.18302 2.18976 2.8758C1.49699 3.56857 1.21988 4.12278 0.804218 4.95411C0.527109 5.64688 0.388554 6.4782 0.25 7.72519C0.25 8.97218 0.25 9.38784 0.25 12.436C0.25 15.6228 0.25 15.8999 0.25 17.1469C0.25 18.3939 0.527109 19.2252 0.804218 19.918C1.08133 20.6107 1.49699 21.3035 2.18976 21.9963C2.88253 22.689 3.43675 22.9662 4.26807 23.3818C4.96084 23.6589 5.79217 23.7975 7.03916 23.936C8.28615 23.936 8.70181 23.936 11.75 23.936C14.7982 23.936 15.2139 23.936 16.4608 23.936C17.7078 23.936 18.5392 23.6589 19.2319 23.3818C19.9247 23.1047 20.6175 22.689 21.3102 21.9963C22.003 21.3035 22.2801 20.7493 22.6958 19.918C22.9729 19.2252 23.1114 18.3939 23.25 17.1469C23.25 15.8999 23.25 15.4842 23.25 12.436C23.25 9.38784 23.25 8.97218 23.25 7.72519C23.25 6.4782 22.9729 5.64688 22.6958 4.95411C22.4187 4.26134 22.003 3.56857 21.3102 2.8758C20.6175 2.18302 20.0633 1.90592 19.2319 1.49025C18.5392 1.21314 17.7078 1.07459 16.4608 0.936035C15.2139 0.936035 14.9367 0.936035 11.75 0.936035Z" fill="#333333"/>
<path d="M11.75 6.4782C8.4247 6.4782 5.79217 9.11073 5.79217 12.436C5.79217 15.7613 8.4247 18.3939 11.75 18.3939C15.0753 18.3939 17.7078 15.7613 17.7078 12.436C17.7078 9.11073 15.0753 6.4782 11.75 6.4782ZM11.75 16.3156C9.67169 16.3156 7.87048 14.6529 7.87048 12.436C7.87048 10.3577 9.53313 8.55652 11.75 8.55652C13.8283 8.55652 15.6295 10.2192 15.6295 12.436C15.6295 14.5143 13.8283 16.3156 11.75 16.3156Z" fill="#333333"/>
<path d="M17.8464 7.72519C18.6116 7.72519 19.2319 7.10486 19.2319 6.33965C19.2319 5.57444 18.6116 4.95411 17.8464 4.95411C17.0812 4.95411 16.4608 5.57444 16.4608 6.33965C16.4608 7.10486 17.0812 7.72519 17.8464 7.72519Z" fill="#333333"/>
</svg>
