<svg width="22" height="24" viewBox="0 0 22 24" fill="none" xmlns="http://www.w3.org/2000/svg">
<path d="M19.0607 4.77841C17.118 2.77648 14.4325 1.68965 11.6898 1.68965C5.86162 1.68965 1.17618 6.43719 1.23327 12.2143C1.23327 14.0447 1.74753 15.8179 2.60467 17.4195L1.119 22.8534L6.66151 21.4234C8.20426 22.2815 9.91838 22.6819 11.6327 22.6819C17.4037 22.6819 22.0892 17.9343 22.0892 12.1572C22.0892 9.3544 21.0034 6.7232 19.0607 4.77841ZM11.6898 20.9087C10.147 20.9087 8.60425 20.5084 7.29003 19.7076L6.94722 19.536L3.63317 20.3939L4.49023 17.1336L4.26169 16.7904C1.74753 12.7293 2.94747 7.35238 7.06149 4.83557C11.1755 2.31884 16.4895 3.52005 19.0036 7.6384C21.5177 11.7567 20.3178 17.0763 16.2038 19.5931C14.8895 20.4511 13.2897 20.9087 11.6898 20.9087ZM16.718 14.5597L16.0895 14.2736C16.0895 14.2736 15.1753 13.8732 14.6039 13.5872C14.5467 13.5872 14.4896 13.53 14.4325 13.53C14.261 13.53 14.1468 13.5872 14.0325 13.6445C14.0325 13.6445 13.9754 13.7016 13.1754 14.6168C13.1182 14.7312 13.004 14.7884 12.8897 14.7884H12.8325C12.7754 14.7884 12.6612 14.7312 12.604 14.674L12.3183 14.5597C11.6898 14.2736 11.1184 13.9304 10.6613 13.4728C10.547 13.3584 10.3755 13.2441 10.2613 13.1297C9.86129 12.7293 9.46131 12.2716 9.17568 11.7568L9.1185 11.6424C9.06141 11.5852 9.06141 11.528 9.00423 11.4137C9.00423 11.2993 9.00423 11.1849 9.06141 11.1276C9.06141 11.1276 9.28995 10.8416 9.46131 10.6701C9.57566 10.5556 9.63275 10.3841 9.74702 10.2697C9.86129 10.0981 9.91847 9.86928 9.86129 9.69765C9.8042 9.41164 9.1185 7.86726 8.94714 7.52409C8.83279 7.35247 8.7186 7.29531 8.54715 7.23808H7.91863C7.80428 7.23808 7.69009 7.29531 7.57574 7.29531L7.51857 7.35247C7.4043 7.4097 7.29003 7.52409 7.17576 7.58125C7.06149 7.69572 7.00432 7.81002 6.89005 7.9245C6.49006 8.43929 6.26152 9.06847 6.26152 9.69765C6.26152 10.1552 6.37579 10.6129 6.54724 11.0133L6.60441 11.1849C7.11867 12.2716 7.80428 13.2441 8.7186 14.102L8.94714 14.3308C9.1185 14.5024 9.28994 14.6168 9.40421 14.7884C10.6042 15.818 11.9755 16.5616 13.5182 16.962C13.6897 17.0192 13.9182 17.0192 14.0897 17.0764H14.661C14.9467 17.0764 15.2895 16.962 15.5181 16.8476C15.6895 16.7332 15.8038 16.7332 15.918 16.6188L16.0324 16.5044C16.1467 16.39 16.2609 16.3328 16.3752 16.2184C16.4895 16.104 16.6037 15.9896 16.6609 15.8752C16.7752 15.6464 16.8323 15.3604 16.8895 15.0745V14.674C16.8895 14.674 16.8323 14.6168 16.718 14.5597Z" fill="#444444"/>
</svg>
