<svg width="27" height="21" viewBox="0 0 27 21" fill="none" xmlns="http://www.w3.org/2000/svg">
<path fill-rule="evenodd" clip-rule="evenodd" d="M0.75 4.26937C0.75 3.38531 1.09241 2.53747 1.7019 1.91235C2.3114 1.28722 3.13805 0.936035 4 0.936035H23.5C24.362 0.936035 25.1886 1.28722 25.7981 1.91235C26.4076 2.53747 26.75 3.38531 26.75 4.26937V17.6027C26.75 18.4868 26.4076 19.3346 25.7981 19.9597C25.1886 20.5848 24.362 20.936 23.5 20.936H4C3.13805 20.936 2.3114 20.5848 1.7019 19.9597C1.09241 19.3346 0.75 18.4868 0.75 17.6027V4.26937ZM4 2.6027C3.56902 2.6027 3.1557 2.7783 2.85095 3.09086C2.5462 3.40342 2.375 3.82734 2.375 4.26937V4.63104L13.75 11.631L25.125 4.63104V4.26937C25.125 3.82734 24.9538 3.40342 24.649 3.09086C24.3443 2.7783 23.931 2.6027 23.5 2.6027H4ZM25.125 6.57437L17.3932 11.3327L25.125 16.126V6.57603V6.57437ZM25.0697 18.0377L15.8154 12.3027L13.75 13.5744L11.683 12.3027L2.43025 18.036C2.5232 18.3901 2.72738 18.7028 3.01117 18.9258C3.29496 19.1487 3.64251 19.2695 4 19.2694H23.5C23.8573 19.2696 24.2047 19.1491 24.4884 18.9264C24.7722 18.7038 24.9765 18.3914 25.0697 18.0377ZM2.375 16.126L10.1067 11.3327L2.375 6.57437V16.1244V16.126Z" fill="#333333"/>
</svg>
