<svg width="43" height="29" viewBox="0 0 43 29" fill="none" xmlns="http://www.w3.org/2000/svg">
<g clip-path="url(#clip0_18_2039)">
<rect x="0.078125" y="0.0639648" width="42" height="28" rx="12" fill="#444444"/>
<path fill-rule="evenodd" clip-rule="evenodd" d="M25.4148 22.8326V13.5298L42.1013 13.545V16.1147L40.1725 18.1592L42.1013 20.2235V22.8473H39.0221L37.3857 21.0557L35.7607 22.8546L25.4148 22.8326Z" fill="white"/>
<path fill-rule="evenodd" clip-rule="evenodd" d="M26.5293 21.8125V14.5537H32.7325V16.2259H28.5382V17.3611H32.6326V19.0057H28.5382V20.1206H32.7325V21.8125H26.5293Z" fill="#444444"/>
<path fill-rule="evenodd" clip-rule="evenodd" d="M32.7019 21.8125L36.1337 18.1791L32.7019 14.5542H35.3581L37.4555 16.8546L39.5587 14.5542H42.1013V14.6111L38.7422 18.1791L42.1013 21.7099V21.8125H39.5331L37.3987 19.489L35.286 21.8125H32.7019Z" fill="#444444"/>
<path fill-rule="evenodd" clip-rule="evenodd" d="M26.1932 5.27344H30.2155L31.6282 8.45664V5.27344H36.5942L37.4504 7.6583L38.3095 5.27344H42.1013V14.5757H22.0625L26.1932 5.27344Z" fill="white"/>
<path fill-rule="evenodd" clip-rule="evenodd" d="M26.9553 6.28418L23.7092 13.5368H25.9356L26.5477 12.0844H29.8659L30.478 13.5368H32.7594L29.5269 6.28418H26.9553ZM27.2341 10.4567L28.2073 8.1479L29.18 10.4567H27.2341Z" fill="#444444"/>
<path fill-rule="evenodd" clip-rule="evenodd" d="M32.7292 13.5358V6.2832L35.8584 6.29391L37.4687 10.7526L39.0897 6.2832H42.1013V13.5358L40.1634 13.5527V8.5706L38.334 13.5358H36.5647L34.6972 8.5537V13.5358H32.7292Z" fill="#444444"/>
</g>
<defs>
<clipPath id="clip0_18_2039">
<rect x="0.078125" y="0.0639648" width="42" height="28" rx="12" fill="white"/>
</clipPath>
</defs>
</svg>
