<svg width="68" height="25" viewBox="0 0 68 25" fill="none" xmlns="http://www.w3.org/2000/svg">
<path d="M14.2868 3.05497L13.5774 3.2718C13.4985 2.97612 13.3803 2.70015 13.2424 2.42418C12.73 1.45829 12.0009 0.945781 11.1141 0.945781C11.055 0.945781 10.9959 0.945776 10.9368 0.965488C10.9171 0.926064 10.8777 0.906352 10.8579 0.866928C10.4638 0.452975 9.97118 0.255859 9.38 0.255859C8.21736 0.295283 7.07442 1.12319 6.14824 2.60159C5.49794 3.64633 4.98559 4.94733 4.84765 5.97235L2.58147 6.68198C1.91147 6.89881 1.89177 6.91853 1.81294 7.54932C1.75382 8.0224 0 21.5646 0 21.5646L14.5232 24.068V3.03525C14.405 3.03525 14.3459 3.03525 14.2868 3.05497ZM10.9368 4.09971L8.49324 4.86848C8.72971 3.96172 9.18295 3.05497 9.73471 2.4636C9.93177 2.24677 10.2274 1.99051 10.5624 1.85253C10.8777 2.52274 10.9368 3.44921 10.9368 4.09971ZM9.3603 1.04434C9.59677 1.02463 9.85295 1.10348 10.05 1.22175C9.71501 1.39916 9.41942 1.6357 9.16324 1.91167C8.43412 2.70015 7.86265 3.9223 7.64589 5.10502L5.61618 5.73581C6.03 3.88287 7.56706 1.10348 9.3603 1.04434ZM7.11383 11.61C7.19265 12.8519 10.4441 13.1081 10.6215 16.0058C10.7594 18.2924 9.41942 19.8496 7.46853 19.9679C5.12353 20.1256 3.84265 18.7458 3.84265 18.7458L4.3353 16.6366C4.3353 16.6366 5.63589 17.6222 6.66059 17.5433C7.33059 17.5039 7.58677 16.952 7.54736 16.5577C7.44883 14.9413 4.80824 15.0399 4.63089 12.3985C4.49294 10.171 5.95118 7.90413 9.18295 7.70701C10.4244 7.62816 11.055 7.94356 11.055 7.94356L10.3259 10.7032C10.3259 10.7032 9.49824 10.3287 8.53265 10.3878C7.11383 10.4864 7.09412 11.3932 7.11383 11.61ZM11.7053 3.86316C11.7053 3.2718 11.6265 2.4636 11.3506 1.75397C12.2177 1.91167 12.6512 2.91699 12.8482 3.50835C12.8285 3.50835 11.7053 3.86316 11.7053 3.86316ZM14.9371 24.0286L20.9671 22.5305C20.9671 22.5305 18.3659 4.98675 18.3659 4.86848C18.3462 4.76992 18.2674 4.69107 18.1491 4.67136C18.0703 4.67136 16.3756 4.63193 16.3756 4.63193C16.3756 4.63193 15.3509 3.62662 14.9568 3.25209V24.0286H14.9371Z" fill="#444444"/>
<path d="M23.9369 15.9717C24.3216 16.172 25.0054 16.4437 25.6607 16.4294C26.259 16.4294 26.5725 16.1004 26.5725 15.7143C26.5725 15.3281 26.3445 15.0707 25.7035 14.6988C24.9057 14.2412 24.3073 13.5976 24.3073 12.7537C24.3073 11.2663 25.5752 10.208 27.4272 10.208C28.2393 10.208 28.8661 10.3653 29.208 10.5655L28.7236 12.0672C28.3105 11.8813 27.8689 11.7812 27.413 11.7812C26.8146 11.7812 26.43 12.0529 26.43 12.482C26.43 12.8253 26.7007 13.0684 27.242 13.3544C28.0683 13.8264 28.7521 14.47 28.7521 15.3853C28.7521 17.073 27.3845 18.0312 25.4898 18.0169C24.6208 18.0026 23.8087 17.7738 23.4098 17.4878C23.4241 17.4878 23.9369 15.9717 23.9369 15.9717ZM29.1795 17.9597L31.2309 7.2045H33.3393L32.5273 11.3664L32.5558 11.3378C33.1256 10.6656 33.8522 10.1937 34.7924 10.1937C35.8894 10.1937 36.5162 10.9088 36.5162 12.0958C36.5162 12.4677 36.4592 13.0541 36.3595 13.5261L35.5332 17.9454H33.4248L34.2226 13.6548C34.2796 13.3687 34.3081 12.9826 34.3081 12.6965C34.3081 12.2389 34.1229 11.8956 33.6528 11.8956C32.9832 11.8956 32.2566 12.7966 31.986 14.1983L31.2879 17.9454L29.1795 17.9597ZM44.1521 13.1542C44.1521 15.7858 42.4711 18.0169 39.978 18.0169C38.0833 18.0169 37.0718 16.7011 37.0718 15.0564C37.0718 12.4963 38.7528 10.1937 41.2886 10.1937C43.2688 10.1937 44.1521 11.6382 44.1521 13.1542ZM39.2372 15.0135C39.2372 15.7858 39.5364 16.4008 40.2629 16.4008C41.3741 16.4008 42.0009 14.3985 42.0009 13.097C42.0009 12.4677 41.7588 11.8241 41.0037 11.8241C39.864 11.8098 39.2372 13.7978 39.2372 15.0135ZM43.6535 20.9489L45.1208 13.1971C45.2918 12.3247 45.4627 11.1948 45.5482 10.3939H47.4144L47.2862 11.5953H47.3147C47.8846 10.7943 48.7108 10.2652 49.5514 10.2652C51.0899 10.2652 51.7168 11.5094 51.7168 12.9254C51.7168 15.4998 50.0927 18.0455 47.6139 18.0455C47.101 18.0455 46.6167 17.9597 46.3745 17.7595H46.3317L45.7477 20.9489H43.6535ZM46.6594 16.1147C46.8873 16.3007 47.1438 16.4151 47.5284 16.4151C48.7108 16.4151 49.5229 14.47 49.5229 13.097C49.5229 12.5249 49.3234 11.9242 48.6823 11.9242C47.9416 11.9242 47.2577 12.7966 47.0156 14.1267L46.6594 16.1147ZM51.788 17.9597L53.2126 10.3939H55.3353L53.8964 17.9597H51.788ZM54.5232 9.60727C53.9249 9.60727 53.526 9.09239 53.526 8.46309C53.526 7.77659 54.0674 7.1902 54.7369 7.1902C55.378 7.1902 55.7911 7.69078 55.7911 8.30577C55.7769 9.09239 55.207 9.59296 54.5517 9.59296C54.5517 9.60727 54.5232 9.60727 54.5232 9.60727ZM55.7341 17.9597L56.8453 11.9814H55.8624L56.1615 10.3939H57.1445L57.2015 10.0077C57.3724 9.12099 57.7001 8.20566 58.4267 7.60497C58.9965 7.11869 59.7373 6.88986 60.4923 6.88986C61.0052 6.88986 61.3898 6.96137 61.632 7.07578L61.2189 8.73483C61.0052 8.66332 60.7773 8.62042 60.5493 8.62042C59.8513 8.62042 59.4239 9.29262 59.2957 10.022L59.2244 10.4082H60.6918L60.4069 11.9957H58.9538L57.8426 17.974L55.7341 17.9597ZM63.3273 10.3939L63.6692 13.7835C63.7404 14.3842 63.7974 14.9706 63.8544 15.5713H63.8829C64.0538 15.1708 64.2105 14.5844 64.5097 13.7692L65.7919 10.3939H68L65.4215 15.9288C64.5097 17.831 63.6122 19.2183 62.6577 20.1193C61.9027 20.8202 61.0194 21.1777 60.5921 21.2635L60.008 19.4615C60.3641 19.3327 60.8057 19.1468 61.2046 18.8608C61.689 18.5175 62.1021 18.0598 62.3586 17.5879C62.4155 17.4734 62.4298 17.4019 62.4013 17.2589L61.1334 10.3796C61.1049 10.3939 63.3273 10.3939 63.3273 10.3939Z" fill="#444444"/>
</svg>
