<svg width="43" height="29" viewBox="0 0 43 29" fill="none" xmlns="http://www.w3.org/2000/svg">
<rect x="0.078125" y="0.0639648" width="42" height="28" rx="12" fill="#444444"/>
<path d="M21.6188 12.4071C21.6009 13.813 22.8816 14.5976 23.8463 15.0641C24.8376 15.5428 25.1706 15.8497 25.1668 16.2776C25.1592 16.9327 24.376 17.2218 23.643 17.2331C22.3642 17.2528 21.6207 16.8905 21.0296 16.6164L20.5689 18.7554C21.162 19.0266 22.2601 19.2631 23.399 19.2734C26.072 19.2734 27.8209 17.9642 27.8303 15.9341C27.8408 13.3578 24.2389 13.2152 24.2635 12.0636C24.272 11.7145 24.6078 11.3419 25.3437 11.2471C25.7078 11.1992 26.7133 11.1626 27.8531 11.6835L28.3004 9.61402C27.6875 9.39252 26.8996 9.18041 25.9187 9.18041C23.4027 9.18041 21.633 10.5075 21.6188 12.4071ZM32.5994 9.35874C32.1114 9.35874 31.6999 9.64123 31.5164 10.0748L27.6979 19.1214H30.3691L30.9006 17.6638H34.1648L34.4732 19.1214H36.8275L34.773 9.35874H32.5994ZM32.973 11.996L33.7439 15.6619H31.6327L32.973 11.996ZM18.3802 9.35874L16.2747 19.1214H18.82L20.9246 9.35874H18.3802ZM14.6147 9.35874L11.9653 16.0036L10.8936 10.3536C10.7678 9.72289 10.2712 9.35874 9.7198 9.35874H5.38866L5.32812 9.64217C6.21724 9.83363 7.22743 10.1424 7.83941 10.4728C8.21397 10.6746 8.32085 10.851 8.44382 11.3306L10.4737 19.1214H13.1637L17.2877 9.35874H14.6147Z" fill="white"/>
</svg>
