<svg width="27" height="29" viewBox="0 0 27 29" fill="none" xmlns="http://www.w3.org/2000/svg">
<path fill-rule="evenodd" clip-rule="evenodd" d="M0 3.54639C0 2.75074 0.304782 1.98768 0.847298 1.42507C1.38981 0.862457 2.12562 0.546387 2.89286 0.546387H8.67857C9.4458 0.546387 10.1816 0.862457 10.7241 1.42507C11.2666 1.98768 11.5714 2.75074 11.5714 3.54639V9.54639C11.5714 10.342 11.2666 11.1051 10.7241 11.6677C10.1816 12.2303 9.4458 12.5464 8.67857 12.5464H2.89286C2.12562 12.5464 1.38981 12.2303 0.847298 11.6677C0.304782 11.1051 0 10.342 0 9.54639V3.54639ZM2.89286 2.54639C2.63711 2.54639 2.39184 2.65174 2.211 2.83928C2.03017 3.02682 1.92857 3.28117 1.92857 3.54639V9.54639C1.92857 9.8116 2.03017 10.066 2.211 10.2535C2.39184 10.441 2.63711 10.5464 2.89286 10.5464H8.67857C8.93432 10.5464 9.17959 10.441 9.36042 10.2535C9.54126 10.066 9.64286 9.8116 9.64286 9.54639V3.54639C9.64286 3.28117 9.54126 3.02682 9.36042 2.83928C9.17959 2.65174 8.93432 2.54639 8.67857 2.54639H2.89286ZM15.4286 3.54639C15.4286 2.75074 15.7334 1.98768 16.2759 1.42507C16.8184 0.862457 17.5542 0.546387 18.3214 0.546387H24.1071C24.8744 0.546387 25.6102 0.862457 26.1527 1.42507C26.6952 1.98768 27 2.75074 27 3.54639V9.54639C27 10.342 26.6952 11.1051 26.1527 11.6677C25.6102 12.2303 24.8744 12.5464 24.1071 12.5464H18.3214C17.5542 12.5464 16.8184 12.2303 16.2759 11.6677C15.7334 11.1051 15.4286 10.342 15.4286 9.54639V3.54639ZM18.3214 2.54639C18.0657 2.54639 17.8204 2.65174 17.6396 2.83928C17.4587 3.02682 17.3571 3.28117 17.3571 3.54639V9.54639C17.3571 9.8116 17.4587 10.066 17.6396 10.2535C17.8204 10.441 18.0657 10.5464 18.3214 10.5464H24.1071C24.3629 10.5464 24.6082 10.441 24.789 10.2535C24.9698 10.066 25.0714 9.8116 25.0714 9.54639V3.54639C25.0714 3.28117 24.9698 3.02682 24.789 2.83928C24.6082 2.65174 24.3629 2.54639 24.1071 2.54639H18.3214ZM0 19.5464C0 18.7507 0.304782 17.9877 0.847298 17.4251C1.38981 16.8625 2.12562 16.5464 2.89286 16.5464H8.67857C9.4458 16.5464 10.1816 16.8625 10.7241 17.4251C11.2666 17.9877 11.5714 18.7507 11.5714 19.5464V25.5464C11.5714 26.342 11.2666 27.1051 10.7241 27.6677C10.1816 28.2303 9.4458 28.5464 8.67857 28.5464H2.89286C2.12562 28.5464 1.38981 28.2303 0.847298 27.6677C0.304782 27.1051 0 26.342 0 25.5464V19.5464ZM2.89286 18.5464C2.63711 18.5464 2.39184 18.6517 2.211 18.8393C2.03017 19.0268 1.92857 19.2812 1.92857 19.5464V25.5464C1.92857 25.8116 2.03017 26.066 2.211 26.2535C2.39184 26.441 2.63711 26.5464 2.89286 26.5464H8.67857C8.93432 26.5464 9.17959 26.441 9.36042 26.2535C9.54126 26.066 9.64286 25.8116 9.64286 25.5464V19.5464C9.64286 19.2812 9.54126 19.0268 9.36042 18.8393C9.17959 18.6517 8.93432 18.5464 8.67857 18.5464H2.89286ZM15.4286 19.5464C15.4286 18.7507 15.7334 17.9877 16.2759 17.4251C16.8184 16.8625 17.5542 16.5464 18.3214 16.5464H24.1071C24.8744 16.5464 25.6102 16.8625 26.1527 17.4251C26.6952 17.9877 27 18.7507 27 19.5464V25.5464C27 26.342 26.6952 27.1051 26.1527 27.6677C25.6102 28.2303 24.8744 28.5464 24.1071 28.5464H18.3214C17.5542 28.5464 16.8184 28.2303 16.2759 27.6677C15.7334 27.1051 15.4286 26.342 15.4286 25.5464V19.5464ZM18.3214 18.5464C18.0657 18.5464 17.8204 18.6517 17.6396 18.8393C17.4587 19.0268 17.3571 19.2812 17.3571 19.5464V25.5464C17.3571 25.8116 17.4587 26.066 17.6396 26.2535C17.8204 26.441 18.0657 26.5464 18.3214 26.5464H24.1071C24.3629 26.5464 24.6082 26.441 24.789 26.2535C24.9698 26.066 25.0714 25.8116 25.0714 25.5464V19.5464C25.0714 19.2812 24.9698 19.0268 24.789 18.8393C24.6082 18.6517 24.3629 18.5464 24.1071 18.5464H18.3214Z" fill="white"/>
</svg>
