<svg width="55" height="28" viewBox="0 0 55 28" fill="none" xmlns="http://www.w3.org/2000/svg">
<rect x="0.078125" y="0.170898" width="54.7786" height="27.7863" rx="12" fill="#444444"/>
<path d="M18.761 18.7443C18.4364 18.7455 18.1148 18.6816 17.8148 18.5564C17.5147 18.4312 17.2422 18.2472 17.0129 18.0149L14.4879 15.4606C14.3985 15.3743 14.2797 15.3261 14.1562 15.3261C14.0326 15.3261 13.9138 15.3743 13.8245 15.4606L11.2909 18.0219C11.0617 18.2545 10.7893 18.439 10.4892 18.5645C10.1892 18.6901 9.8675 18.7543 9.54277 18.7535H9.04842L12.2481 21.9881C12.728 22.4722 13.3782 22.7441 14.0562 22.7441C14.7341 22.7441 15.3844 22.4722 15.8642 21.9881L19.0703 18.7464L18.761 18.7443Z" fill="white"/>
<path d="M9.5433 9.71729C9.86804 9.71641 10.1897 9.78061 10.4898 9.90618C10.7898 10.0317 11.0623 10.2162 11.2914 10.4489L13.825 13.0107C13.9131 13.0994 14.0323 13.1493 14.1567 13.1493C14.281 13.1493 14.4003 13.0994 14.4884 13.0107L17.0129 10.4586C17.2419 10.2256 17.5143 10.0409 17.8143 9.91526C18.1144 9.78959 18.4362 9.72541 18.761 9.72645H19.065L15.8589 6.48534C15.6215 6.24525 15.3396 6.05479 15.0294 5.92485C14.7192 5.79491 14.3866 5.72803 14.0508 5.72803C13.715 5.72803 13.3825 5.79491 13.0723 5.92485C12.762 6.05479 12.4802 6.24525 12.2428 6.48534L9.04842 9.71729H9.5433Z" fill="white"/>
<path d="M21.7169 12.4074L19.7795 10.4488C19.7358 10.4669 19.6891 10.4764 19.6419 10.4769H18.761C18.3025 10.478 17.8631 10.6621 17.5381 10.989L15.0136 13.5395C14.7862 13.769 14.4781 13.8978 14.1569 13.8978C13.8357 13.8978 13.5275 13.769 13.3002 13.5395L10.766 10.9793C10.4412 10.6522 10.0017 10.4679 9.54323 10.4666H8.46175C8.41717 10.4656 8.37313 10.4567 8.33163 10.4402L6.38196 12.4074C5.90309 12.8925 5.63416 13.5499 5.63416 14.2353C5.63416 14.9206 5.90309 15.578 6.38196 16.0631L8.32736 18.0298C8.36877 18.013 8.41287 18.004 8.45748 18.0033H9.54323C10.0017 18.002 10.4412 17.8177 10.766 17.4907L13.2996 14.9294C13.7577 14.4668 14.5561 14.4668 15.0136 14.9294L17.5381 17.4809C17.8631 17.8079 18.3025 17.9919 18.761 17.9931H19.6419C19.6891 17.9934 19.7359 18.003 19.7795 18.0211L21.7169 16.0626C21.9544 15.8226 22.1428 15.5376 22.2713 15.224C22.3999 14.9104 22.466 14.5742 22.466 14.2347C22.466 13.8952 22.3999 13.5591 22.2713 13.2455C22.1428 12.9318 21.9544 12.6474 21.7169 12.4074Z" fill="white"/>
<path d="M26.2766 20.0898V12.5671C26.2766 11.9025 26.5378 11.2651 27.0026 10.7952C27.4675 10.3252 28.098 10.0612 28.7554 10.0612L30.9523 10.0643C31.608 10.0657 32.2364 10.33 32.6995 10.7992C33.1627 11.2684 33.4227 11.9042 33.4226 12.5671V14.168C33.4226 14.8326 33.1615 15.4701 32.6966 15.9401C32.2318 16.4101 31.6013 16.6742 30.9438 16.6743H27.8387M34.0367 10.0607H34.9897C35.2595 10.0607 35.5183 10.169 35.7091 10.3619C35.8999 10.5548 36.0071 10.8164 36.0071 11.0892V16.7082M37.8367 10.0557H38.7817C39.2678 10.0555 39.7341 10.2505 40.0779 10.5978L42.2886 12.8326C42.3567 12.9015 42.4375 12.9561 42.5264 12.9934C42.6154 13.0307 42.7108 13.0499 42.8071 13.0499C42.9034 13.0499 42.9987 13.0307 43.0877 12.9934C43.1767 12.9561 43.2575 12.9015 43.3255 12.8326L45.5281 10.6063C45.6983 10.4343 45.9004 10.2979 46.1227 10.2049C46.3451 10.1119 46.5834 10.064 46.824 10.0642H47.5925M37.8367 16.6588H38.7817C39.2678 16.659 39.734 16.464 40.0779 16.1167L42.2886 13.8819C42.4261 13.743 42.6126 13.6649 42.8071 13.6649C43.0015 13.6649 43.188 13.743 43.3255 13.8819L45.5281 16.1086C45.8719 16.4558 46.3381 16.6509 46.824 16.6507H47.5925" stroke="white" stroke-linecap="round" stroke-linejoin="round"/>
</svg>
