<svg width="47" height="28" viewBox="0 0 47 28" fill="none" xmlns="http://www.w3.org/2000/svg">
<rect x="0.856689" y="0.170898" width="46.0458" height="27.7863" rx="12" fill="#444444"/>
<path d="M9.58948 6.52197H9.90024V15.2548H9.58948V6.52197ZM10.211 6.52197H10.5218V15.2548H10.211V6.52197ZM12.0769 6.52197H12.3876V15.2548H12.0769V6.52197ZM18.1257 6.52197H18.4365V15.2548H18.1257V6.52197ZM20.148 6.52197H20.4587V15.2548H20.148V6.52197ZM22.1089 6.52197H22.4196V15.2548H22.1089V6.52197ZM22.6142 6.52197H22.925V15.2548H22.6142V6.52197ZM23.1203 6.52197H23.4311V15.2548H23.1203V6.52197ZM23.689 6.52197H23.9998V15.2548H23.689V6.52197ZM24.2578 6.52197H24.5685V15.2548H24.2578V6.52197ZM25.8386 6.52197H26.1494V15.2548H25.8386V6.52197ZM29.7584 6.52197H30.0691V15.2548H29.7584V6.52197ZM33.847 6.52197H34.1578V15.2548H33.847V6.52197ZM34.9654 6.52197H35.2761V15.2548H34.9654V6.52197ZM35.7736 6.52197H36.0844V15.2548H35.7736V6.52197ZM36.2711 6.52197H36.5818V15.2548H36.2711V6.52197ZM14.1288 6.52197H14.4395V15.2548H14.1288V6.52197ZM11.0192 6.52197H11.5787V15.2548H11.0192V6.52197ZM14.712 6.52197H15.2715V15.2548H14.712V6.52197ZM17.305 6.52197H17.8645V15.2548H17.305V6.52197ZM18.6325 6.52197H19.192V15.2548H18.6325V6.52197ZM20.7187 6.52197H21.2782V15.2548H20.7187V6.52197ZM26.6666 6.52197H27.5369V15.2548H26.6666V6.52197ZM27.8034 6.52197H28.4876V15.2548H27.8034V6.52197ZM29.0029 6.52197H29.5624V15.2548H29.0029V6.52197ZM30.589 6.52197H31.522V15.2548H30.589V6.52197ZM32.416 6.52197H33.3489V15.2548H32.416V6.52197ZM12.6984 6.52197H13.8174V15.2548H12.6984V6.52197ZM15.5988 6.52197H16.469V15.2548H15.5988V6.52197Z" fill="white"/>
<path d="M10.3834 22.3211V17.7194H12.1493C12.4443 17.7083 12.7387 17.7557 13.0145 17.8589C13.2259 17.9473 13.4041 18.0975 13.5246 18.289C13.644 18.4702 13.7081 18.681 13.7094 18.8965C13.7094 19.0931 13.6526 19.2856 13.5457 19.452C13.4252 19.6353 13.2537 19.7812 13.0513 19.8724C13.3111 19.9376 13.542 20.0841 13.7087 20.2896C13.863 20.4902 13.9438 20.7356 13.9382 20.9865C13.9399 21.1947 13.8922 21.4005 13.7988 21.5876C13.7197 21.7554 13.601 21.9024 13.4523 22.0164C13.2976 22.1248 13.1224 22.2022 12.9369 22.244C12.6881 22.2998 12.4334 22.3257 12.1782 22.3211H10.3834ZM11.0066 19.6532H12.0243C12.2231 19.6608 12.4221 19.6429 12.616 19.5998C12.758 19.5646 12.8839 19.4841 12.9737 19.371C13.0573 19.2533 13.0995 19.1123 13.094 18.9692C13.0969 18.827 13.0579 18.6871 12.9816 18.5661C12.9088 18.4512 12.7956 18.3662 12.6634 18.3269C12.4288 18.2742 12.1879 18.2525 11.9474 18.2626H11.0066V19.6532ZM11.0066 21.7785H12.1782C12.3199 21.7822 12.4617 21.7748 12.6022 21.7567C12.7294 21.7365 12.8514 21.6929 12.9619 21.6281C13.0628 21.5643 13.1446 21.4756 13.1992 21.3709C13.2629 21.252 13.295 21.1194 13.2926 20.9852C13.297 20.8251 13.2498 20.6677 13.1578 20.5352C13.067 20.408 12.9353 20.3141 12.7837 20.2684C12.5595 20.2091 12.3275 20.1831 12.0953 20.1913H11.0066V21.7785ZM14.8481 20.0801C14.8087 19.4244 15.0347 18.7799 15.4772 18.2858C15.6858 18.0716 15.9384 17.9031 16.2184 17.7914C16.4985 17.6797 16.7995 17.6274 17.1018 17.6378C17.5145 17.6322 17.9209 17.7376 18.2766 17.9425C18.6224 18.1423 18.8999 18.4379 19.0741 18.7917C19.262 19.1771 19.3558 19.5998 19.3482 20.0267C19.3559 20.4607 19.257 20.8902 19.0596 21.279C18.8807 21.6329 18.595 21.9247 18.2411 22.1147C17.8913 22.3033 17.4979 22.4012 17.0985 22.3989C16.6805 22.4057 16.269 22.2972 15.9111 22.0858C15.5668 21.8817 15.291 21.5836 15.1176 21.2282C14.939 20.8707 14.8468 20.4779 14.8481 20.0801ZM15.4904 20.0897C15.4636 20.5685 15.6287 21.0387 15.9506 21.4005C16.0958 21.556 16.2733 21.6792 16.4714 21.7618C16.6694 21.8445 16.8832 21.8846 17.0985 21.8795C17.315 21.8848 17.5302 21.8444 17.7292 21.7608C17.9283 21.6772 18.1065 21.5526 18.2516 21.3954C18.5764 21.0114 18.7389 20.5207 18.7059 20.0235C18.7145 19.6869 18.6493 19.3523 18.5146 19.0425C18.3959 18.7752 18.198 18.5488 17.9466 18.3925C17.6953 18.2381 17.4038 18.158 17.107 18.1617C16.8967 18.1586 16.6879 18.1963 16.4926 18.2725C16.2972 18.3487 16.1193 18.4621 15.969 18.6059C15.7912 18.8089 15.6571 19.0449 15.5749 19.2997C15.4926 19.5546 15.4639 19.8237 15.4904 20.0897ZM20.3693 22.3211V17.7194H20.9919V21.7779H23.3093V22.3211H20.3693ZM24.3073 22.3211V17.7194H27.7103V18.2626H24.9299V19.6718H27.5334V20.2118H24.9299V21.7779H27.8194V22.3211H24.3073ZM30.1204 22.3211V18.2626H28.5695V17.7194H32.2999V18.2626H30.743V22.3211H30.1204ZM32.8738 20.0801C32.8348 19.4242 33.0613 18.7797 33.5043 18.2858C33.7128 18.0716 33.9655 17.9031 34.2455 17.7914C34.5255 17.6797 34.8266 17.6274 35.1288 17.6378C35.5416 17.6322 35.948 17.7376 36.3037 17.9425C36.6494 18.1423 36.9269 18.4379 37.1012 18.7917C37.2891 19.1771 37.3829 19.5998 37.3753 20.0267C37.383 20.4607 37.284 20.8902 37.0867 21.279C36.9072 21.6336 36.6205 21.9256 36.2655 22.1154C35.9157 22.304 35.5224 22.4018 35.1229 22.3995C34.7046 22.4062 34.2929 22.2975 33.9349 22.0858C33.5913 21.8814 33.3162 21.5834 33.1434 21.2282C32.9648 20.8707 32.8725 20.4779 32.8738 20.0801ZM33.5161 20.0897C33.4894 20.5685 33.6544 21.0387 33.9763 21.4005C34.1215 21.556 34.2991 21.6792 34.4971 21.7618C34.6951 21.8445 34.909 21.8846 35.1242 21.8795C35.3414 21.8855 35.5573 21.8454 35.757 21.7619C35.9568 21.6784 36.1357 21.5536 36.2813 21.396C36.6061 21.0121 36.7686 20.5213 36.7356 20.0241C36.7424 19.6871 36.6751 19.3526 36.5384 19.0431C36.4196 18.7759 36.2218 18.5495 35.9704 18.3931C35.7191 18.2387 35.4275 18.1586 35.1308 18.1624C34.9205 18.1592 34.7117 18.1969 34.5163 18.2731C34.321 18.3494 34.1431 18.4627 33.9928 18.6066C33.8153 18.8096 33.6815 19.0455 33.5995 19.3002C33.5175 19.5549 33.4889 19.8233 33.5155 20.0891L33.5161 20.0897Z" fill="white"/>
</svg>
