<svg width="43" height="29" viewBox="0 0 43 29" fill="none" xmlns="http://www.w3.org/2000/svg">
<rect x="0.078125" y="0.0639648" width="42" height="28" rx="12" fill="#444444"/>
<path d="M19.573 10.0204C20.4515 9.14134 21.4179 8.43809 22.56 7.9546C23.6142 7.47111 24.7563 7.25134 25.9423 7.25134C27.1283 7.25134 28.2704 7.47111 29.3686 7.9546C30.4667 8.43809 31.4331 9.14134 32.3116 10.0644L32.3556 10.1523H34.8594L34.7715 9.97646C33.7612 8.56995 32.4434 7.3832 30.8621 6.59204C29.2807 5.71297 27.6554 5.27344 25.9423 5.27344C24.2292 5.27344 22.56 5.66902 20.9786 6.50414C19.3973 7.33925 18.0795 8.48204 17.0692 9.93251L16.9813 10.1083H19.5291L19.573 10.0204Z" fill="white"/>
<path d="M22.5599 11.8664V13.6245H24.7563V19.9538C24.7563 20.7889 24.888 21.4922 25.3712 21.9757C25.8105 22.5031 26.3815 22.7668 27.1283 22.7668C27.875 22.7668 28.5339 22.635 29.105 22.2833H29.1489V22.2394L29.6321 20.1736L29.5003 20.2615C28.8853 20.6131 28.4461 20.7889 27.919 20.7889C27.2161 20.7889 26.9526 20.3933 26.9526 19.5582V13.6245H29.1489V11.8664H26.9526V8.39404L24.7563 9.58079V11.8664H22.5599Z" fill="white"/>
<path d="M33.5415 11.8667H31.3452V22.8551H33.5415V11.8667Z" fill="white"/>
<path d="M17.157 13.5365V13.4486C16.1467 12.2179 14.8729 11.6025 13.3354 11.6025C11.7102 11.6025 10.3924 12.086 9.33813 13.053C8.19604 14.1079 7.625 15.4704 7.625 17.2286C7.625 18.9867 8.19604 20.3493 9.33813 21.4042C10.3924 22.3711 11.7102 22.8546 13.3354 22.8546C14.8729 22.8546 16.1467 22.2393 17.157 21.0086L17.201 20.9646L15.9271 19.4263L15.8832 19.4702C15.0486 20.2614 14.17 20.7009 13.2476 20.7009C12.2812 20.7009 11.4466 20.3493 10.8316 19.69C10.1727 19.0307 9.86525 18.1956 9.86525 17.1846C9.86525 16.1737 10.1727 15.3386 10.8316 14.6793C11.4905 14.02 12.2812 13.7123 13.2476 13.7123C14.17 13.7123 15.0486 14.1518 15.8832 14.943L15.9271 14.987L17.201 13.4486L17.157 13.5365Z" fill="white"/>
<path d="M20.8029 11.8667H18.6066V22.8551H20.8029V11.8667Z" fill="white"/>
</svg>
