<svg width="24" height="25" viewBox="0 0 24 25" fill="none" xmlns="http://www.w3.org/2000/svg">
<path fill-rule="evenodd" clip-rule="evenodd" d="M15.6612 15.7566C15.8005 15.6171 15.9659 15.5065 16.148 15.431C16.3301 15.3555 16.5253 15.3166 16.7224 15.3166C16.9195 15.3166 17.1147 15.3555 17.2968 15.431C17.4789 15.5065 17.6444 15.6171 17.7837 15.7566L23.5587 21.5316C23.8401 21.8128 23.9983 22.1944 23.9985 22.5923C23.9986 22.9902 23.8407 23.3719 23.5594 23.6533C23.2782 23.9348 22.8966 24.093 22.4987 24.0931C22.1008 24.0933 21.7191 23.9353 21.4377 23.6541L15.6627 17.8791C15.5232 17.7398 15.4126 17.5743 15.3371 17.3922C15.2616 17.2101 15.2227 17.0149 15.2227 16.8178C15.2227 16.6207 15.2616 16.4255 15.3371 16.2434C15.4126 16.0613 15.5232 15.8959 15.6627 15.7566H15.6612Z" fill="white"/>
<path fill-rule="evenodd" clip-rule="evenodd" d="M9.75 18.0933C10.8334 18.0933 11.9062 17.8799 12.9071 17.4653C13.9081 17.0507 14.8175 16.443 15.5836 15.6769C16.3497 14.9108 16.9574 14.0013 17.372 13.0004C17.7866 11.9995 18 10.9267 18 9.84326C18 8.75986 17.7866 7.68706 17.372 6.68612C16.9574 5.68519 16.3497 4.77571 15.5836 4.00963C14.8175 3.24355 13.9081 2.63586 12.9071 2.22126C11.9062 1.80665 10.8334 1.59326 9.75 1.59326C7.56196 1.59326 5.46354 2.46246 3.91637 4.00963C2.36919 5.55681 1.5 7.65523 1.5 9.84326C1.5 12.0313 2.36919 14.1297 3.91637 15.6769C5.46354 17.2241 7.56196 18.0933 9.75 18.0933ZM19.5 9.84326C19.5 12.4291 18.4728 14.9091 16.6443 16.7376C14.8158 18.566 12.3359 19.5933 9.75 19.5933C7.16414 19.5933 4.68419 18.566 2.85571 16.7376C1.02723 14.9091 0 12.4291 0 9.84326C0 7.2574 1.02723 4.77745 2.85571 2.94897C4.68419 1.12049 7.16414 0.0932617 9.75 0.0932617C12.3359 0.0932617 14.8158 1.12049 16.6443 2.94897C18.4728 4.77745 19.5 7.2574 19.5 9.84326Z" fill="white"/>
</svg>
