<svg width="42" height="29" viewBox="0 0 42 29" fill="none" xmlns="http://www.w3.org/2000/svg">
<rect x="0.078125" y="0.0639648" width="41" height="28" rx="12" fill="#444444"/>
<path d="M9.78219 10.7322C10.1107 10.6192 10.4633 10.5603 10.8304 10.5603C12.4341 10.5603 13.7721 11.7191 14.0764 13.2558L16.3466 12.7845C15.825 10.1725 13.5547 8.20361 10.8304 8.20361C10.2073 8.20361 9.6083 8.30672 9.04797 8.4982L9.78219 10.7322Z" fill="white"/>
<path d="M7.10146 18.2146L8.63752 16.4471C7.95161 15.8285 7.5217 14.93 7.5217 13.9235C7.5217 12.9219 7.95161 12.0184 8.63752 11.4047L7.10146 9.64209C5.93734 10.6928 5.20312 12.2197 5.20312 13.9284C5.20312 15.6321 5.93734 17.1639 7.10146 18.2146Z" fill="white"/>
<path d="M14.0764 14.6011C13.7673 16.1379 12.4341 17.2917 10.8304 17.2917C10.4633 17.2917 10.1107 17.2327 9.77743 17.1198L9.04321 19.3538C9.60353 19.5452 10.2073 19.6484 10.8304 19.6484C13.5548 19.6484 15.825 17.6844 16.3467 15.0724L14.0764 14.6011Z" fill="white"/>
<path d="M23.9109 16.182C23.5342 16.5552 23.027 16.781 22.4666 16.7712C22.0802 16.7663 21.7229 16.6484 21.4233 16.452L20.6698 17.6697C21.1866 17.9986 21.7903 18.195 22.4474 18.2049C23.3989 18.2196 24.2683 17.8366 24.9012 17.2131L23.9109 16.182ZM22.5488 11.2182C20.6553 11.1887 19.0903 12.7304 19.0612 14.655C19.0516 15.3768 19.2545 16.0543 19.6167 16.6141L25.8382 13.9087C25.4905 12.3916 24.1574 11.2476 22.5489 11.2182H22.5488ZM20.4862 14.9299C20.4766 14.8514 20.4718 14.7679 20.4718 14.6845C20.4911 13.5503 21.4089 12.642 22.5247 12.6616C23.1333 12.6714 23.6742 12.9513 24.0365 13.3932L20.4862 14.9299ZM27.7946 9.64697V16.3882L28.9443 16.8742L28.3984 18.2048L27.2584 17.7236C27.0025 17.6107 26.8285 17.4389 26.6981 17.2425C26.5725 17.0461 26.4759 16.7711 26.4759 16.4078V9.64697H27.7946ZM31.9439 12.7647C32.1468 12.696 32.3593 12.6616 32.5864 12.6616C33.5669 12.6616 34.3785 13.3686 34.5668 14.3064L35.9531 14.0167C35.6343 12.421 34.248 11.223 32.5864 11.223C32.2048 11.223 31.8377 11.2869 31.4996 11.3998L31.9439 12.7647ZM30.3064 17.3259L31.2435 16.2507C30.8233 15.8726 30.5624 15.3227 30.5624 14.709C30.5624 14.0953 30.828 13.5454 31.2435 13.1722L30.3064 12.097C29.5964 12.7353 29.1471 13.673 29.1471 14.7139C29.1471 15.7548 29.5964 16.6877 30.3064 17.3259ZM34.5668 15.1263C34.3785 16.0641 33.5621 16.7711 32.5864 16.7711C32.3642 16.7711 32.1468 16.7318 31.9439 16.6631L31.4947 18.028C31.8377 18.1458 32.2047 18.2097 32.5864 18.2097C34.248 18.2097 35.6343 17.0117 35.9531 15.416L34.5668 15.1263Z" fill="white"/>
</svg>
