<svg width="24" height="25" viewBox="0 0 24 25" fill="none" xmlns="http://www.w3.org/2000/svg">
<path fill-rule="evenodd" clip-rule="evenodd" d="M15.9985 6.09326C15.9985 7.15413 15.577 8.17154 14.8269 8.92169C14.0768 9.67183 13.0593 10.0933 11.9985 10.0933C10.9376 10.0933 9.92019 9.67183 9.17005 8.92169C8.4199 8.17154 7.99847 7.15413 7.99847 6.09326C7.99847 5.0324 8.4199 4.01498 9.17005 3.26483C9.92019 2.51469 10.9376 2.09326 11.9985 2.09326C13.0593 2.09326 14.0768 2.51469 14.8269 3.26483C15.577 4.01498 15.9985 5.0324 15.9985 6.09326ZM11.9985 12.0933C13.5898 12.0933 15.1159 11.4611 16.2411 10.3359C17.3663 9.21068 17.9985 7.68456 17.9985 6.09326C17.9985 4.50196 17.3663 2.97584 16.2411 1.85062C15.1159 0.725403 13.5898 0.0932617 11.9985 0.0932617C10.4072 0.0932617 8.88105 0.725403 7.75583 1.85062C6.63062 2.97584 5.99847 4.50196 5.99847 6.09326C5.99847 7.68456 6.63062 9.21068 7.75583 10.3359C8.88105 11.4611 10.4072 12.0933 11.9985 12.0933ZM23.9985 22.0933C23.9985 24.0933 21.9985 24.0933 21.9985 24.0933H1.99847C1.99847 24.0933 -0.00152588 24.0933 -0.00152588 22.0933C-0.00152588 20.0933 1.99847 14.0933 11.9985 14.0933C21.9985 14.0933 23.9985 20.0933 23.9985 22.0933ZM21.9985 22.0853C21.9965 21.5933 21.6905 20.1133 20.3345 18.7573C19.0305 17.4533 16.5765 16.0933 11.9985 16.0933C7.41847 16.0933 4.96647 17.4533 3.66247 18.7573C2.30647 20.1133 2.00247 21.5933 1.99847 22.0853H21.9985Z" fill="white"/>
</svg>
