<svg width="43" height="29" viewBox="0 0 43 29" fill="none" xmlns="http://www.w3.org/2000/svg">
<rect x="0.078125" y="0.0639648" width="42" height="28" rx="12" fill="#444444"/>
<path d="M24.845 20.9766H17.0938V7.1543H24.845V20.9766Z" fill="#444444"/>
<path d="M17.5902 14.0643C17.5902 11.2604 18.9133 8.7627 20.9737 7.15311C19.467 5.9761 17.5654 5.27359 15.4989 5.27359C10.6065 5.27359 6.64062 9.20925 6.64062 14.0643C6.64062 18.9193 10.6065 22.855 15.4989 22.855C17.5654 22.855 19.467 22.1525 20.9737 20.9755C18.9133 19.3659 17.5902 16.8682 17.5902 14.0643Z" fill="white"/>
<path d="M35.299 14.0643C35.299 18.9193 31.3331 22.855 26.4407 22.855C24.3741 22.855 22.4726 22.1525 20.9653 20.9755C23.0263 19.3659 24.3493 16.8682 24.3493 14.0643C24.3493 11.2604 23.0263 8.7627 20.9653 7.15311C22.4726 5.9761 24.3741 5.27359 26.4407 5.27359C31.3331 5.27359 35.299 9.20925 35.299 14.0643Z" fill="white"/>
</svg>
