<svg width="167" height="28" viewBox="0 0 167 28" fill="none" xmlns="http://www.w3.org/2000/svg">
<path d="M13.5 0L16.5309 9.67376H26.3393L18.4042 15.6525L21.4351 25.3262L13.5 19.3475L5.5649 25.3262L8.59584 15.6525L0.660737 9.67376H10.4691L13.5 0Z" fill="#EEAF00"/>
<path d="M48.5 0L51.5309 9.67376H61.3393L53.4042 15.6525L56.4351 25.3262L48.5 19.3475L40.5649 25.3262L43.5958 15.6525L35.6607 9.67376H45.4691L48.5 0Z" fill="#EEAF00"/>
<path d="M83.5 0L86.5309 9.67376H96.3393L88.4042 15.6525L91.4351 25.3262L83.5 19.3475L75.5649 25.3262L78.5958 15.6525L70.6607 9.67376H80.4691L83.5 0Z" fill="#EEAF00"/>
<path d="M118.5 0L121.531 9.67376H131.339L123.404 15.6525L126.435 25.3262L118.5 19.3475L110.565 25.3262L113.596 15.6525L105.661 9.67376H115.469L118.5 0Z" fill="#EEAF00"/>
<path d="M153.5 0L156.531 9.67376H166.339L158.404 15.6525L161.435 25.3262L153.5 19.3475L145.565 25.3262L148.596 15.6525L140.661 9.67376H150.469L153.5 0Z" fill="#EEAF00"/>
</svg>
