<svg width="29" height="23" viewBox="0 0 29 23" fill="none" xmlns="http://www.w3.org/2000/svg">
<path d="M28.25 3.61551C27.25 4.03859 26.1072 4.32065 24.9643 4.46167C26.1072 3.75655 27.1071 2.62835 27.5357 1.35912C26.3929 2.06424 25.25 2.48732 23.8214 2.76937C22.8214 1.64117 21.25 0.936035 19.6786 0.936035C16.5357 0.936035 13.9643 3.4745 13.9643 6.57706C13.9643 7.00014 13.9643 7.4232 14.1071 7.84628C9.39286 7.56423 5.10714 5.30782 2.24999 1.92321C1.82142 2.76936 1.53571 3.75654 1.53571 4.74372C1.53571 6.71808 2.53571 8.41039 4.10714 9.39757C3.10714 9.39757 2.24999 9.11552 1.53571 8.69244C1.53571 11.3719 3.5357 13.7694 6.10713 14.1924C5.67856 14.3335 5.10714 14.3335 4.53572 14.3335C4.10714 14.3335 3.82143 14.3335 3.39285 14.1924C4.10714 16.4488 6.25 18.1412 8.82143 18.1412C6.82143 19.6924 4.39286 20.5386 1.67857 20.5386C1.25 20.5386 0.821429 20.5386 0.25 20.3976C2.82143 21.9489 5.82143 22.936 9.10714 22.936C19.6786 22.936 25.3929 14.3335 25.3929 6.85911V6.15398C26.5357 5.7309 27.5357 4.74372 28.25 3.61551Z" fill="#333333"/>
</svg>
