<svg width="31" height="36" viewBox="0 0 31 36" fill="none" xmlns="http://www.w3.org/2000/svg">
<path fill-rule="evenodd" clip-rule="evenodd" d="M15.4985 2.78076C14.0303 2.78076 12.6223 3.35693 11.5841 4.38252C10.546 5.40811 9.96276 6.79911 9.96276 8.24951V9.34326H21.0342V8.24951C21.0342 6.79911 20.451 5.40811 19.4128 4.38252C18.3747 3.35693 16.9666 2.78076 15.4985 2.78076ZM23.2485 9.34326V8.24951C23.2485 6.21895 22.432 4.27155 20.9786 2.83573C19.5251 1.3999 17.5539 0.593262 15.4985 0.593262C13.443 0.593262 11.4718 1.3999 10.0184 2.83573C8.56499 4.27155 7.74847 6.21895 7.74847 8.24951V9.34326H-0.00152588V31.2183C-0.00152588 32.3786 0.465054 33.4914 1.29557 34.3119C2.12609 35.1323 3.25252 35.5933 4.42705 35.5933H26.5699C27.7444 35.5933 28.8709 35.1323 29.7014 34.3119C30.5319 33.4914 30.9985 32.3786 30.9985 31.2183V9.34326H23.2485ZM2.21276 11.5308V31.2183C2.21276 31.7984 2.44605 32.3548 2.86131 32.7651C3.27657 33.1753 3.83978 33.4058 4.42705 33.4058H26.5699C27.1572 33.4058 27.7204 33.1753 28.1356 32.7651C28.5509 32.3548 28.7842 31.7984 28.7842 31.2183V11.5308H2.21276Z" fill="white"/>
</svg>
